  0
SECTION
  2
HEADER
  9
$ACADVER
  1
AC1018
  9
$ACADMAINTVER
 70
     0
  9
$DWGCODEPAGE
  3
ANSI_1252
  9
$INSBASE
 10
0.0
 20
0.0
 30
0.0
  9
$EXTMIN
 10
-603.3543082883336
 20
86.01006410421809
 30
-0.0000000000000266
  9
$EXTMAX
 10
344.5664956046563
 20
366.0100641054672
 30
0.0000000000000067
  9
$LIMMIN
 10
0.0
 20
0.0
  9
$LIMMAX
 10
12.0
 20
9.0
  9
$ORTHOMODE
 70
     0
  9
$REGENMODE
 70
     1
  9
$FILLMODE
 70
     1
  9
$QTEXTMODE
 70
     0
  9
$MIRRTEXT
 70
     1
  9
$LTSCALE
 40
1.0
  9
$ATTMODE
 70
     1
  9
$TEXTSIZE
 40
0.2
  9
$TRACEWID
 40
0.05
  9
$TEXTSTYLE
  7
Standard
  9
$CLAYER
  8
taglio
  9
$CELTYPE
  6
ByLayer
  9
$CECOLOR
 62
   256
  9
$CELTSCALE
 40
1.0
  9
$DISPSILH
 70
     0
  9
$DIMSCALE
 40
1.0
  9
$DIMASZ
 40
0.18
  9
$DIMEXO
 40
0.0625
  9
$DIMDLI
 40
0.38
  9
$DIMRND
 40
0.0
  9
$DIMDLE
 40
0.0
  9
$DIMEXE
 40
0.18
  9
$DIMTP
 40
0.0
  9
$DIMTM
 40
0.0
  9
$DIMTXT
 40
0.18
  9
$DIMCEN
 40
0.09
  9
$DIMTSZ
 40
0.0
  9
$DIMTOL
 70
     0
  9
$DIMLIM
 70
     0
  9
$DIMTIH
 70
     1
  9
$DIMTOH
 70
     1
  9
$DIMSE1
 70
     0
  9
$DIMSE2
 70
     0
  9
$DIMTAD
 70
     0
  9
$DIMZIN
 70
     0
  9
$DIMBLK
  1

  9
$DIMASO
 70
     1
  9
$DIMSHO
 70
     1
  9
$DIMPOST
  1

  9
$DIMAPOST
  1

  9
$DIMALT
 70
     0
  9
$DIMALTD
 70
     2
  9
$DIMALTF
 40
25.4
  9
$DIMLFAC
 40
1.0
  9
$DIMTOFL
 70
     0
  9
$DIMTVP
 40
0.0
  9
$DIMTIX
 70
     0
  9
$DIMSOXD
 70
     0
  9
$DIMSAH
 70
     0
  9
$DIMBLK1
  1

  9
$DIMBLK2
  1

  9
$DIMSTYLE
  2
Standard
  9
$DIMCLRD
 70
     0
  9
$DIMCLRE
 70
     0
  9
$DIMCLRT
 70
     0
  9
$DIMTFAC
 40
1.0
  9
$DIMGAP
 40
0.09
  9
$DIMJUST
 70
     0
  9
$DIMSD1
 70
     0
  9
$DIMSD2
 70
     0
  9
$DIMTOLJ
 70
     1
  9
$DIMTZIN
 70
     0
  9
$DIMALTZ
 70
     0
  9
$DIMALTTZ
 70
     0
  9
$DIMUPT
 70
     0
  9
$DIMDEC
 70
     4
  9
$DIMTDEC
 70
     4
  9
$DIMALTU
 70
     2
  9
$DIMALTTD
 70
     2
  9
$DIMTXSTY
  7
Standard
  9
$DIMAUNIT
 70
     0
  9
$DIMADEC
 70
     0
  9
$DIMALTRND
 40
0.0
  9
$DIMAZIN
 70
     0
  9
$DIMDSEP
 70
    46
  9
$DIMATFIT
 70
     3
  9
$DIMFRAC
 70
     0
  9
$DIMLDRBLK
  1

  9
$DIMLUNIT
 70
     2
  9
$DIMLWD
 70
    -2
  9
$DIMLWE
 70
    -2
  9
$DIMTMOVE
 70
     2
  9
$LUNITS
 70
     2
  9
$LUPREC
 70
     3
  9
$SKETCHINC
 40
0.1
  9
$FILLETRAD
 40
0.5
  9
$AUNITS
 70
     0
  9
$AUPREC
 70
     0
  9
$MENU
  1
.
  9
$ELEVATION
 40
0.0
  9
$PELEVATION
 40
0.0
  9
$THICKNESS
 40
0.0
  9
$LIMCHECK
 70
     0
  9
$CHAMFERA
 40
0.5
  9
$CHAMFERB
 40
0.5
  9
$CHAMFERC
 40
1.0
  9
$CHAMFERD
 40
0.0
  9
$SKPOLY
 70
     0
  9
$TDCREATE
 40
2457933.672884768
  9
$TDUCREATE
 40
2457933.589551435
  9
$TDUPDATE
 40
2457933.672901933
  9
$TDUUPDATE
 40
2457933.5895686
  9
$TDINDWG
 40
0.0000000116
  9
$TDUSRTIMER
 40
0.0000000116
  9
$USRTIMER
 70
     1
  9
$ANGBASE
 50
0.0
  9
$ANGDIR
 70
     0
  9
$PDMODE
 70
     0
  9
$PDSIZE
 40
0.0
  9
$PLINEWID
 40
0.0
  9
$SPLFRAME
 70
     0
  9
$SPLINETYPE
 70
     6
  9
$SPLINESEGS
 70
     8
  9
$HANDSEED
  5
1C4
  9
$SURFTAB1
 70
     6
  9
$SURFTAB2
 70
     6
  9
$SURFTYPE
 70
     6
  9
$SURFU
 70
     6
  9
$SURFV
 70
     6
  9
$UCSBASE
  2

  9
$UCSNAME
  2

  9
$UCSORG
 10
0.0
 20
0.0
 30
0.0
  9
$UCSXDIR
 10
1.0
 20
0.0
 30
0.0
  9
$UCSYDIR
 10
0.0
 20
1.0
 30
0.0
  9
$UCSORTHOREF
  2

  9
$UCSORTHOVIEW
 70
     0
  9
$UCSORGTOP
 10
0.0
 20
0.0
 30
0.0
  9
$UCSORGBOTTOM
 10
0.0
 20
0.0
 30
0.0
  9
$UCSORGLEFT
 10
0.0
 20
0.0
 30
0.0
  9
$UCSORGRIGHT
 10
0.0
 20
0.0
 30
0.0
  9
$UCSORGFRONT
 10
0.0
 20
0.0
 30
0.0
  9
$UCSORGBACK
 10
0.0
 20
0.0
 30
0.0
  9
$PUCSBASE
  2

  9
$PUCSNAME
  2

  9
$PUCSORG
 10
0.0
 20
0.0
 30
0.0
  9
$PUCSXDIR
 10
1.0
 20
0.0
 30
0.0
  9
$PUCSYDIR
 10
0.0
 20
1.0
 30
0.0
  9
$PUCSORTHOREF
  2

  9
$PUCSORTHOVIEW
 70
     0
  9
$PUCSORGTOP
 10
0.0
 20
0.0
 30
0.0
  9
$PUCSORGBOTTOM
 10
0.0
 20
0.0
 30
0.0
  9
$PUCSORGLEFT
 10
0.0
 20
0.0
 30
0.0
  9
$PUCSORGRIGHT
 10
0.0
 20
0.0
 30
0.0
  9
$PUCSORGFRONT
 10
0.0
 20
0.0
 30
0.0
  9
$PUCSORGBACK
 10
0.0
 20
0.0
 30
0.0
  9
$USERI1
 70
     0
  9
$USERI2
 70
     0
  9
$USERI3
 70
     0
  9
$USERI4
 70
     0
  9
$USERI5
 70
     0
  9
$USERR1
 40
0.0
  9
$USERR2
 40
0.0
  9
$USERR3
 40
0.0
  9
$USERR4
 40
0.0
  9
$USERR5
 40
0.0
  9
$WORLDVIEW
 70
     1
  9
$SHADEDGE
 70
     3
  9
$SHADEDIF
 70
    70
  9
$TILEMODE
 70
     1
  9
$MAXACTVP
 70
    64
  9
$PINSBASE
 10
0.0
 20
0.0
 30
0.0
  9
$PLIMCHECK
 70
     0
  9
$PEXTMIN
 10
1.000000000000000E+20
 20
1.000000000000000E+20
 30
1.000000000000000E+20
  9
$PEXTMAX
 10
-1.000000000000000E+20
 20
-1.000000000000000E+20
 30
-1.000000000000000E+20
  9
$PLIMMIN
 10
0.0
 20
0.0
  9
$PLIMMAX
 10
12.0
 20
9.0
  9
$UNITMODE
 70
     0
  9
$VISRETAIN
 70
     1
  9
$PLINEGEN
 70
     0
  9
$PSLTSCALE
 70
     1
  9
$TREEDEPTH
 70
  3020
  9
$CMLSTYLE
  2
Standard
  9
$CMLJUST
 70
     0
  9
$CMLSCALE
 40
1.0
  9
$PROXYGRAPHICS
 70
     1
  9
$MEASUREMENT
 70
     0
  9
$CELWEIGHT
370
    -1
  9
$ENDCAPS
280
     0
  9
$JOINSTYLE
280
     0
  9
$LWDISPLAY
290
     0
  9
$INSUNITS
 70
     4
  9
$HYPERLINKBASE
  1

  9
$STYLESHEET
  1

  9
$XEDIT
290
     1
  9
$CEPSNTYPE
380
     0
  9
$PSTYLEMODE
290
     1
  9
$FINGERPRINTGUID
  2
{DBB82E0C-9919-43D6-9AFC-025E458E7962}
  9
$VERSIONGUID
  2
{FAEB1C32-E019-11D5-929B-00C0DF256EC4}
  9
$EXTNAMES
290
     1
  9
$PSVPSCALE
 40
0.0
  9
$OLESTARTUP
290
     0
  9
$SORTENTS
280
   127
  9
$INDEXCTL
280
     0
  9
$HIDETEXT
280
     1
  9
$XCLIPFRAME
290
     0
  9
$HALOGAP
280
     0
  9
$OBSCOLOR
 70
   257
  9
$OBSLTYPE
280
     0
  9
$INTERSECTIONDISPLAY
280
     0
  9
$INTERSECTIONCOLOR
 70
   257
  9
$DIMASSOC
280
     2
  9
$PROJECTNAME
  1

  0
ENDSEC
  0
SECTION
  2
CLASSES
  0
CLASS
  1
ACDBDICTIONARYWDFLT
  2
AcDbDictionaryWithDefault
  3
ObjectDBX Classes
 90
        0
 91
        4
280
     0
281
     0
  0
CLASS
  1
VISUALSTYLE
  2
AcDbVisualStyle
  3
ObjectDBX Classes
 90
     4095
 91
        4
280
     0
281
     0
  0
CLASS
  1
MATERIAL
  2
AcDbMaterial
  3
ObjectDBX Classes
 90
     1153
 91
        4
280
     0
281
     0
  0
CLASS
  1
SUN
  2
AcDbSun
  3
SCENEOE
 90
     1024
 91
        4
280
     0
281
     0
  0
ENDSEC
  0
SECTION
  2
TABLES
  0
TABLE
  2
VPORT
  5
8
330
0
100
AcDbSymbolTable
 70
     1
  0
VPORT
  5
29
330
8
100
AcDbSymbolTableRecord
100
AcDbViewportTableRecord
  2
*Active
 70
     0
 10
0.0
 20
0.0
 11
1.0
 21
1.0
 12
-129.3939063418387
 22
226.0100641048427
 13
0.0
 23
0.0
 14
0.5
 24
0.5
 15
0.5
 25
0.5
 16
0.0
 26
0.0
 36
1.0
 17
0.0
 27
0.0
 37
0.0
 40
285.6000000012741
 41
3.385431442459861
 42
50.0
 43
0.0
 44
0.0
 50
0.0
 51
0.0
 71
     0
 72
   100
 73
     1
 74
     3
 75
     0
 76
     0
 77
     0
 78
     0
281
     0
 65
     1
110
0.0
120
0.0
130
0.0
111
1.0
121
0.0
131
0.0
112
0.0
122
1.0
132
0.0
 79
     0
146
0.0
  0
ENDTAB
  0
TABLE
  2
LTYPE
  5
5
330
0
100
AcDbSymbolTable
 70
     1
  0
LTYPE
  5
14
330
5
100
AcDbSymbolTableRecord
100
AcDbLinetypeTableRecord
  2
ByBlock
 70
     0
  3

 72
    65
 73
     0
 40
0.0
  0
LTYPE
  5
15
330
5
100
AcDbSymbolTableRecord
100
AcDbLinetypeTableRecord
  2
ByLayer
 70
     0
  3

 72
    65
 73
     0
 40
0.0
  0
LTYPE
  5
16
330
5
100
AcDbSymbolTableRecord
100
AcDbLinetypeTableRecord
  2
Continuous
 70
     0
  3
Solid line
 72
    65
 73
     0
 40
0.0
  0
ENDTAB
  0
TABLE
  2
LAYER
  5
2
330
0
100
AcDbSymbolTable
 70
     2
  0
LAYER
  5
10
330
2
100
AcDbSymbolTableRecord
100
AcDbLayerTableRecord
  2
0
 70
     0
 62
     7
  6
Continuous
370
    -3
390
F
  0
LAYER
  5
40
330
2
100
AcDbSymbolTableRecord
100
AcDbLayerTableRecord
  2
taglio
 70
     0
 62
    18
420
        0
  6
Continuous
370
    -3
390
F
  0
ENDTAB
  0
TABLE
  2
STYLE
  5
3
330
0
100
AcDbSymbolTable
 70
     1
  0
STYLE
  5
11
330
3
100
AcDbSymbolTableRecord
100
AcDbTextStyleTableRecord
  2
Standard
 70
     0
 40
0.0
 41
1.0
 50
0.0
 71
     0
 42
0.2
  3
txt
  4

  0
ENDTAB
  0
TABLE
  2
VIEW
  5
6
330
0
100
AcDbSymbolTable
 70
     0
  0
ENDTAB
  0
TABLE
  2
UCS
  5
7
330
0
100
AcDbSymbolTable
 70
     0
  0
ENDTAB
  0
TABLE
  2
APPID
  5
9
330
0
100
AcDbSymbolTable
 70
     1
  0
APPID
  5
12
330
9
100
AcDbSymbolTableRecord
100
AcDbRegAppTableRecord
  2
ACAD
 70
     0
  0
ENDTAB
  0
TABLE
  2
DIMSTYLE
  5
A
330
0
100
AcDbSymbolTable
 70
     1
100
AcDbDimStyleTable
  0
DIMSTYLE
105
27
330
A
100
AcDbSymbolTableRecord
100
AcDbDimStyleTableRecord
  2
Standard
 70
     0
178
     0
340
11
  0
ENDTAB
  0
TABLE
  2
BLOCK_RECORD
  5
1
330
0
100
AcDbSymbolTable
 70
     1
  0
BLOCK_RECORD
  5
1F
330
1
100
AcDbSymbolTableRecord
100
AcDbBlockTableRecord
  2
*Model_Space
340
22
  0
BLOCK_RECORD
  5
1B
330
1
100
AcDbSymbolTableRecord
100
AcDbBlockTableRecord
  2
*Paper_Space
340
1E
  0
BLOCK_RECORD
  5
23
330
1
100
AcDbSymbolTableRecord
100
AcDbBlockTableRecord
  2
*Paper_Space0
340
26
  0
ENDTAB
  0
ENDSEC
  0
SECTION
  2
BLOCKS
  0
BLOCK
  5
20
330
1F
100
AcDbEntity
  8
0
100
AcDbBlockBegin
  2
*Model_Space
 70
     0
 10
0.0
 20
0.0
 30
0.0
  3
*Model_Space
  1

  0
ENDBLK
  5
21
330
1F
100
AcDbEntity
  8
0
100
AcDbBlockEnd
  0
BLOCK
  5
1C
330
1B
100
AcDbEntity
 67
     1
  8
0
100
AcDbBlockBegin
  2
*Paper_Space
 70
     0
 10
0.0
 20
0.0
 30
0.0
  3
*Paper_Space
  1

  0
ENDBLK
  5
1D
330
1B
100
AcDbEntity
 67
     1
  8
0
100
AcDbBlockEnd
  0
BLOCK
  5
24
330
23
100
AcDbEntity
  8
0
100
AcDbBlockBegin
  2
*Paper_Space0
 70
     0
 10
0.0
 20
0.0
 30
0.0
  3
*Paper_Space0
  1

  0
ENDBLK
  5
25
330
23
100
AcDbEntity
  8
0
100
AcDbBlockEnd
  0
ENDSEC
  0
SECTION
  2
ENTITIES
  0
LINE
  5
41
330
1F
100
AcDbEntity
  8
taglio
100
AcDbLine
 10
126.0664956043138
 20
213.9100641047266
 30
-0.0000000000000067
 11
126.0664956043138
 21
238.1100641047265
 31
-0.0000000000000067
  0
ARC
  5
42
330
1F
100
AcDbEntity
  8
taglio
100
AcDbCircle
 10
123.1664956043139
 20
238.1100641047265
 30
-0.0000000000000067
 40
2.9
100
AcDbArc
 50
0.0
 51
89.99999999999916
  0
LINE
  5
43
330
1F
100
AcDbEntity
  8
taglio
100
AcDbLine
 10
123.1664956043139
 20
241.0100641047265
 30
-0.0000000000000067
 11
123.0664956043138
 21
241.0100641047265
 31
-0.0000000000000067
  0
LINE
  5
44
330
1F
100
AcDbEntity
  8
taglio
100
AcDbLine
 10
123.0664956043138
 20
241.0100641047265
 30
-0.0000000000000067
 11
123.0664956043138
 21
211.0100641047265
 31
-0.0000000000000067
  0
LINE
  5
45
330
1F
100
AcDbEntity
  8
taglio
100
AcDbLine
 10
123.0664956043138
 20
211.0100641047265
 30
-0.0000000000000067
 11
123.1664956043139
 21
211.0100641047265
 31
-0.0000000000000067
  0
ARC
  5
46
330
1F
100
AcDbEntity
  8
taglio
100
AcDbCircle
 10
123.1664956043139
 20
213.9100641047265
 30
-0.0000000000000067
 40
2.9
100
AcDbArc
 50
270.0000000000008
 51
0.0
  0
LINE
  5
47
330
1F
100
AcDbEntity
  8
taglio
100
AcDbLine
 10
124.8121644155964
 20
364.1242361345296
 30
0.0
 11
123.5664956039714
 21
361.0100641054672
 31
0.0
  0
LINE
  5
48
330
1F
100
AcDbEntity
  8
taglio
100
AcDbLine
 10
123.5664956039714
 20
361.0100641054672
 30
0.0
 11
123.5664956039714
 21
251.0100641054672
 31
-0.0000000000000266
  0
POLYLINE
  5
49
330
1F
100
AcDbEntity
  8
taglio
100
AcDb2dPolyline
 66
     1
 10
0.0
 20
0.0
 30
-0.0000000000000266
  0
VERTEX
  5
4A
330
49
100
AcDbEntity
  8
taglio
100
AcDbVertex
100
AcDb2dVertex
 10
123.5664956039714
 20
251.0100641054672
 30
-0.0000000000000266
  0
VERTEX
  5
4B
330
49
100
AcDbEntity
  8
taglio
100
AcDbVertex
100
AcDb2dVertex
 10
93.56649560397142
 20
251.0100641054672
 30
-0.0000000000000266
  0
VERTEX
  5
4C
330
49
100
AcDbEntity
  8
taglio
100
AcDbVertex
100
AcDb2dVertex
 10
93.56649560397142
 20
201.0100641054672
 30
-0.0000000000000266
  0
VERTEX
  5
4D
330
49
100
AcDbEntity
  8
taglio
100
AcDbVertex
100
AcDb2dVertex
 10
123.5664956046563
 20
201.0100641039858
 30
-0.0000000000000266
  0
SEQEND
  5
4E
330
49
100
AcDbEntity
  8
taglio
  0
LINE
  5
4F
330
1F
100
AcDbEntity
  8
taglio
100
AcDbLine
 10
123.5664956046563
 20
201.0100641039858
 30
0.0
 11
153.5664956046563
 21
201.0100641039858
 31
0.0
  0
ARC
  5
50
330
1F
100
AcDbEntity
  8
taglio
100
AcDbCircle
 10
188.5664956046563
 20
201.0100641039858
 30
0.0
 40
35.0
100
AcDbArc
 50
180.0
 51
235.1116961662385
  0
LINE
  5
51
330
1F
100
AcDbEntity
  8
taglio
100
AcDbLine
 10
168.5472502571108
 20
172.3006611893521
 30
0.0
 11
162.9040435827904
 21
157.8077660607461
 31
0.0
  0
LINE
  5
52
330
1F
100
AcDbEntity
  8
taglio
100
AcDbLine
 10
162.9040435827904
 20
157.8077660607461
 30
0.0
 11
171.9671214531803
 21
153.5815834433887
 31
0.0
  0
LINE
  5
53
330
1F
100
AcDbEntity
  8
taglio
100
AcDbLine
 10
171.9671214531803
 20
153.5815834433887
 30
0.0
 11
179.4419399018924
 21
167.2203839748819
 31
0.0
  0
ARC
  5
54
330
1F
100
AcDbEntity
  8
taglio
100
AcDbCircle
 10
188.5664956046563
 20
201.0100641039858
 30
0.0
 40
35.0
100
AcDbArc
 50
254.8883038347415
 51
260.111696166284
  0
LINE
  5
55
330
1F
100
AcDbEntity
  8
taglio
100
AcDbLine
 10
182.5560156110019
 20
166.5300100111356
 30
0.0
 11
183.2409532352133
 21
156.0100641039858
 31
0.0
  0
LINE
  5
56
330
1F
100
AcDbEntity
  8
taglio
100
AcDbLine
 10
183.2409532352133
 20
156.0100641039858
 30
0.0
 11
193.8920379748159
 21
156.0100641039858
 31
0.0
  0
LINE
  5
57
330
1F
100
AcDbEntity
  8
taglio
100
AcDbLine
 10
193.8920379748159
 20
156.0100641039858
 30
0.0
 11
194.5769755989309
 21
166.5300100112437
 31
0.0
  0
ARC
  5
58
330
1F
100
AcDbEntity
  8
taglio
100
AcDbCircle
 10
188.5664956046563
 20
201.0100641039858
 30
0.0
 40
35.0
100
AcDbArc
 50
279.8883038347467
 51
285.1116961662784
  0
LINE
  5
59
330
1F
100
AcDbEntity
  8
taglio
100
AcDbLine
 10
197.6910513080216
 20
167.2203839750443
 30
0.0
 11
205.1658697568785
 21
153.5815834435215
 31
0.0
  0
LINE
  5
5A
330
1F
100
AcDbEntity
  8
taglio
100
AcDbLine
 10
205.1658697568785
 20
153.5815834435215
 30
0.0
 11
214.228947627222
 21
157.8077660609782
 31
0.0
  0
LINE
  5
5B
330
1F
100
AcDbEntity
  8
taglio
100
AcDbLine
 10
214.228947627222
 20
157.8077660609782
 30
0.0
 11
208.5857409526727
 21
172.3006611896805
 31
0.0
  0
ARC
  5
5C
330
1F
100
AcDbEntity
  8
taglio
100
AcDbCircle
 10
188.5664956046563
 20
201.0100641039858
 30
0.0
 40
35.0
100
AcDbArc
 50
304.8883038347014
 51
0.0
  0
LINE
  5
5D
330
1F
100
AcDbEntity
  8
taglio
100
AcDbLine
 10
223.5664956046563
 20
201.0100641039858
 30
0.0
 11
223.5664956046563
 21
91.01006410421809
 31
0.0
  0
LINE
  5
5E
330
1F
100
AcDbEntity
  8
taglio
100
AcDbLine
 10
223.5664956046563
 20
91.01006410421809
 30
0.0
 11
224.8121644162812
 21
87.89589207515577
 31
0.0
  0
ARC
  5
5F
330
1F
100
AcDbEntity
  8
taglio
100
AcDbCircle
 10
227.597594488937
 20
89.01006410421809
 30
0.0
 40
3.0
100
AcDbArc
 50
201.801409486352
 51
270.0
  0
LINE
  5
60
330
1F
100
AcDbEntity
  8
taglio
100
AcDbLine
 10
227.597594488937
 20
86.01006410421809
 30
0.0
 11
249.5353967203756
 21
86.01006410421809
 31
0.0
  0
ARC
  5
61
330
1F
100
AcDbEntity
  8
taglio
100
AcDbCircle
 10
249.5353967203756
 20
89.01006410421809
 30
0.0
 40
3.0
100
AcDbArc
 50
270.0
 51
338.198590513648
  0
LINE
  5
62
330
1F
100
AcDbEntity
  8
taglio
100
AcDbLine
 10
252.3208267930314
 20
87.89589207515577
 30
0.0
 11
253.5664956046563
 21
91.01006410421809
 31
0.0
  0
LINE
  5
63
330
1F
100
AcDbEntity
  8
taglio
100
AcDbLine
 10
253.5664956046563
 20
91.01006410421809
 30
0.0
 11
253.5664956046563
 21
201.0100641043342
 31
0.0
  0
ARC
  5
64
330
1F
100
AcDbEntity
  8
taglio
100
AcDbCircle
 10
288.5664956046563
 20
201.0100641043342
 30
0.0
 40
35.0
100
AcDbArc
 50
180.0
 51
235.1116961656245
  0
LINE
  5
65
330
1F
100
AcDbEntity
  8
taglio
100
AcDbLine
 10
268.5472502568032
 20
172.300661189915
 30
0.0
 11
262.9040435820905
 21
157.8077660609782
 31
0.0
  0
LINE
  5
66
330
1F
100
AcDbEntity
  8
taglio
100
AcDbLine
 10
262.9040435820905
 20
157.8077660609782
 30
0.0
 11
271.967121452434
 21
153.5815834435215
 31
0.0
  0
LINE
  5
67
330
1F
100
AcDbEntity
  8
taglio
100
AcDbLine
 10
271.967121452434
 20
153.5815834435215
 30
0.0
 11
279.4419399013787
 21
167.220383975369
 31
0.0
  0
ARC
  5
68
330
1F
100
AcDbEntity
  8
taglio
100
AcDbCircle
 10
288.5664956046563
 20
201.0100641043342
 30
0.0
 40
35.0
100
AcDbArc
 50
254.8883038338705
 51
260.1116961653515
  0
LINE
  5
69
330
1F
100
AcDbEntity
  8
taglio
100
AcDbLine
 10
282.5560156104407
 20
166.5300100115818
 30
0.0
 11
283.2409532344967
 21
156.0100641039858
 31
0.0
  0
LINE
  5
6A
330
1F
100
AcDbEntity
  8
taglio
100
AcDbLine
 10
283.2409532344967
 20
156.0100641039858
 30
0.0
 11
293.8920379740992
 21
156.0100641039858
 31
0.0
  0
LINE
  5
6B
330
1F
100
AcDbEntity
  8
taglio
100
AcDbLine
 10
293.8920379740992
 20
156.0100641039858
 30
0.0
 11
294.5769755982518
 21
166.5300100114737
 31
0.0
  0
ARC
  5
6C
330
1F
100
AcDbEntity
  8
taglio
100
AcDbCircle
 10
288.5664956046563
 20
201.0100641043342
 30
0.0
 40
35.0
100
AcDbArc
 50
279.8883038336182
 51
285.1116961651098
  0
LINE
  5
6D
330
1F
100
AcDbEntity
  8
taglio
100
AcDbLine
 10
297.6910513073325
 20
167.2203839752066
 30
0.0
 11
305.1658697561323
 21
153.5815834433887
 31
0.0
  0
LINE
  5
6E
330
1F
100
AcDbEntity
  8
taglio
100
AcDbLine
 10
305.1658697561323
 20
153.5815834433887
 30
0.0
 11
314.2289476265221
 21
157.8077660607461
 31
0.0
  0
LINE
  5
6F
330
1F
100
AcDbEntity
  8
taglio
100
AcDbLine
 10
314.2289476265221
 20
157.8077660607461
 30
0.0
 11
308.5857409520382
 21
172.3006611895865
 31
0.0
  0
ARC
  5
70
330
1F
100
AcDbEntity
  8
taglio
100
AcDbCircle
 10
288.5664956046563
 20
201.0100641043342
 30
0.0
 40
35.0
100
AcDbArc
 50
304.8883038334352
 51
0.0
  0
LINE
  5
71
330
1F
100
AcDbEntity
  8
taglio
100
AcDbLine
 10
323.5664956046563
 20
201.0100641043342
 30
0.0
 11
323.5664956046563
 21
211.0100641044504
 31
0.0
  0
LINE
  5
72
330
1F
100
AcDbEntity
  8
taglio
100
AcDbLine
 10
323.5664956046563
 20
211.0100641044504
 30
0.0
 11
341.1321810296055
 21
213.5194477365859
 31
0.0
  0
ARC
  5
73
330
1F
100
AcDbEntity
  8
taglio
100
AcDbCircle
 10
340.5664956046563
 20
217.4792457112306
 30
0.0
 40
4.0
100
AcDbArc
 50
278.1301023541563
 51
0.0
  0
LINE
  5
74
330
1F
100
AcDbEntity
  8
taglio
100
AcDbLine
 10
344.5664956046563
 20
217.4792457112306
 30
0.0
 11
344.5664956046563
 21
234.5408824976701
 31
0.0
  0
ARC
  5
75
330
1F
100
AcDbEntity
  8
taglio
100
AcDbCircle
 10
340.5664956046563
 20
234.5408824976701
 30
0.0000000000000025
 40
4.0
100
AcDbArc
 50
0.0000000000004071
 51
81.86989764584362
  0
LINE
  5
76
330
1F
100
AcDbEntity
  8
taglio
100
AcDbLine
 10
341.1321810296055
 20
238.5006804723147
 30
0.0000000000000022
 11
323.5664956046563
 21
241.0100641044504
 31
0.0000000000000067
  0
LINE
  5
77
330
1F
100
AcDbEntity
  8
taglio
100
AcDbLine
 10
323.5664956046563
 20
241.0100641044504
 30
0.0000000000000067
 11
323.5664956046563
 21
251.0100641045665
 31
0.0
  0
ARC
  5
78
330
1F
100
AcDbEntity
  8
taglio
100
AcDbCircle
 10
288.5664956046563
 20
251.0100641043342
 30
0.0
 40
35.0
100
AcDbArc
 50
0.0000000003802184
 51
55.11169616530939
  0
LINE
  5
79
330
1F
100
AcDbEntity
  8
taglio
100
AcDbLine
 10
308.5857409526673
 20
279.7194670186433
 30
0.0
 11
314.2289476269746
 21
294.2123621470553
 31
0.0
  0
LINE
  5
7A
330
1F
100
AcDbEntity
  8
taglio
100
AcDbLine
 10
314.2289476269746
 20
294.2123621470553
 30
0.0
 11
305.1658697566129
 21
298.4385447644729
 31
0.0
  0
LINE
  5
7B
330
1F
100
AcDbEntity
  8
taglio
100
AcDbLine
 10
305.1658697566129
 20
298.4385447644729
 30
0.0
 11
297.6910513078873
 21
284.799744233312
 31
0.0
  0
ARC
  5
7C
330
1F
100
AcDbEntity
  8
taglio
100
AcDbCircle
 10
288.5664956046563
 20
251.0100641043342
 30
0.0
 40
35.0
100
AcDbArc
 50
74.88830383394932
 51
80.11169616553741
  0
LINE
  5
7D
330
1F
100
AcDbEntity
  8
taglio
100
AcDbLine
 10
294.57697559876
 20
285.4901181971061
 30
0.0
 11
293.5664956047722
 21
301.0100641039742
 31
0.0
  0
LINE
  5
7E
330
1F
100
AcDbEntity
  8
taglio
100
AcDbLine
 10
293.5664956047722
 20
301.0100641039742
 30
0.0
 11
283.5664956047722
 21
301.0100641039858
 31
0.0
  0
LINE
  5
7F
330
1F
100
AcDbEntity
  8
taglio
100
AcDbLine
 10
283.5664956047722
 20
301.0100641039858
 30
0.0
 11
282.5560156107128
 21
285.4901181971341
 31
0.0
  0
ARC
  5
80
330
1F
100
AcDbEntity
  8
taglio
100
AcDbCircle
 10
288.5664956046563
 20
251.0100641043342
 30
0.0
 40
35.0
100
AcDbArc
 50
99.88830383419624
 51
105.1116961657837
  0
LINE
  5
81
330
1F
100
AcDbEntity
  8
taglio
100
AcDbLine
 10
279.4419399015827
 20
284.7997442333545
 30
0.0
 11
271.9671214529147
 21
298.4385447645603
 31
0.0
  0
LINE
  5
82
330
1F
100
AcDbEntity
  8
taglio
100
AcDbLine
 10
271.9671214529147
 20
298.4385447645603
 30
0.0
 11
262.904043582543
 21
294.2123621471638
 31
0.0
  0
LINE
  5
83
330
1F
100
AcDbEntity
  8
taglio
100
AcDbLine
 10
262.904043582543
 20
294.2123621471638
 30
0.0
 11
268.5472502567789
 21
279.7194670187365
 31
0.0
  0
ARC
  5
84
330
1F
100
AcDbEntity
  8
taglio
100
AcDbCircle
 10
288.5664956046563
 20
251.0100641043342
 30
0.0
 40
35.0
100
AcDbArc
 50
124.8883038344239
 51
180.0
  0
LINE
  5
85
330
1F
100
AcDbEntity
  8
taglio
100
AcDbLine
 10
253.5664956046563
 20
251.010064104102
 30
0.0
 11
223.5664956046563
 21
251.0100641042181
 31
0.0
  0
ARC
  5
86
330
1F
100
AcDbEntity
  8
taglio
100
AcDbCircle
 10
188.5664956046563
 20
251.0100641039858
 30
0.0
 40
35.0
100
AcDbArc
 50
0.0000000003802184
 51
55.11169616590187
  0
LINE
  5
87
330
1F
100
AcDbEntity
  8
taglio
100
AcDbLine
 10
208.5857409523704
 20
279.7194670185019
 30
0.0
 11
214.2289476267695
 21
294.2123621471638
 31
0.0
  0
LINE
  5
88
330
1F
100
AcDbEntity
  8
taglio
100
AcDbLine
 10
214.2289476267695
 20
294.2123621471638
 30
0.0
 11
205.1658697563979
 21
298.4385447645603
 31
0.0
  0
LINE
  5
89
330
1F
100
AcDbEntity
  8
taglio
100
AcDbLine
 10
205.1658697563979
 20
298.4385447645603
 30
0.0
 11
197.6910513076423
 21
284.7997442330297
 31
0.0
  0
ARC
  5
8A
330
1F
100
AcDbEntity
  8
taglio
100
AcDbCircle
 10
188.5664956046563
 20
251.0100641039858
 30
0.0
 40
35.0
100
AcDbArc
 50
74.88830383436476
 51
80.11169616590163
  0
LINE
  5
8B
330
1F
100
AcDbEntity
  8
taglio
100
AcDbLine
 10
194.5769755985408
 20
285.4901181967959
 30
0.0
 11
193.5664956045403
 21
301.0100641039858
 31
0.0
  0
LINE
  5
8C
330
1F
100
AcDbEntity
  8
taglio
100
AcDbLine
 10
193.5664956045403
 20
301.0100641039858
 30
0.0
 11
183.5664956045403
 21
301.0100641039742
 31
0.0
  0
LINE
  5
8D
330
1F
100
AcDbEntity
  8
taglio
100
AcDbLine
 10
183.5664956045403
 20
301.0100641039742
 30
0.0
 11
182.5560156106115
 21
285.490118196768
 31
0.0
  0
ARC
  5
8E
330
1F
100
AcDbEntity
  8
taglio
100
AcDbCircle
 10
188.5664956046563
 20
251.0100641039858
 30
0.0
 40
35.0
100
AcDbArc
 50
99.88830383436459
 51
105.1116961659021
  0
LINE
  5
8F
330
1F
100
AcDbEntity
  8
taglio
100
AcDbLine
 10
179.4419399015128
 20
284.7997442329872
 30
0.0
 11
171.9671214526996
 21
298.4385447644729
 31
0.0
  0
LINE
  5
90
330
1F
100
AcDbEntity
  8
taglio
100
AcDbLine
 10
171.9671214526996
 20
298.4385447644729
 30
0.0
 11
162.9040435823379
 21
294.2123621470553
 31
0.0
  0
LINE
  5
91
330
1F
100
AcDbEntity
  8
taglio
100
AcDbLine
 10
162.9040435823379
 20
294.2123621470553
 30
0.0
 11
168.5472502568087
 21
279.7194670184089
 31
0.0
  0
ARC
  5
92
330
1F
100
AcDbEntity
  8
taglio
100
AcDbCircle
 10
188.5664956046563
 20
251.0100641039858
 30
0.0
 40
35.0
100
AcDbArc
 50
124.8883038343645
 51
180.0
  0
LINE
  5
93
330
1F
100
AcDbEntity
  8
taglio
100
AcDbLine
 10
153.5664956046563
 20
251.0100641037536
 30
0.0
 11
153.5664956039714
 21
361.0100641054672
 31
0.0
  0
LINE
  5
94
330
1F
100
AcDbEntity
  8
taglio
100
AcDbLine
 10
153.5664956039714
 20
361.0100641054672
 30
0.0
 11
152.3208267923465
 21
364.1242361345296
 31
0.0
  0
ARC
  5
95
330
1F
100
AcDbEntity
  8
taglio
100
AcDbCircle
 10
149.5353967196907
 20
363.0100641054672
 30
0.0
 40
3.0
100
AcDbArc
 50
21.80140948635221
 51
90.0
  0
LINE
  5
96
330
1F
100
AcDbEntity
  8
taglio
100
AcDbLine
 10
149.5353967196907
 20
366.0100641054672
 30
0.0
 11
127.5975944882521
 21
366.0100641054672
 31
0.0
  0
ARC
  5
97
330
1F
100
AcDbEntity
  8
taglio
100
AcDbCircle
 10
127.5975944882521
 20
363.0100641054672
 30
0.0
 40
3.0
100
AcDbArc
 50
90.0
 51
158.1985905136478
  0
CIRCLE
  5
98
330
1F
100
AcDbEntity
  8
taglio
100
AcDbCircle
 10
238.5664956046563
 20
146.0100641041601
 30
0.0
 40
2.0
  0
CIRCLE
  5
99
330
1F
100
AcDbEntity
  8
taglio
100
AcDbCircle
 10
188.5664956046563
 20
201.0100641039858
 30
0.0
 40
8.25
  0
CIRCLE
  5
9A
330
1F
100
AcDbEntity
  8
taglio
100
AcDbCircle
 10
115.3857066131935
 20
119.8609001020358
 30
0.0
 40
10.0
  0
CIRCLE
  5
9B
330
1F
100
AcDbEntity
  8
taglio
100
AcDbCircle
 10
194.3857066131935
 20
119.8609001020358
 30
0.0
 40
10.0
  0
CIRCLE
  5
9C
330
1F
100
AcDbEntity
  8
taglio
100
AcDbCircle
 10
154.8857066131935
 20
119.8609001020358
 30
0.0
 40
1.5
  0
ARC
  5
9D
330
1F
100
AcDbEntity
  8
taglio
100
AcDbCircle
 10
194.3857066131938
 20
119.8609001020358
 30
0.0
 40
17.00000000000032
100
AcDbArc
 50
203.5781784782018
 51
156.421821521799
  0
ARC
  5
9E
330
1F
100
AcDbEntity
  8
taglio
100
AcDbCircle
 10
176.0554038333701
 20
127.8609001020358
 30
0.0
 40
3.0
100
AcDbArc
 50
270.0000000000005
 51
336.4218215217975
  0
LINE
  5
9F
330
1F
100
AcDbEntity
  8
taglio
100
AcDbLine
 10
176.0554038333701
 20
124.8609001020358
 30
0.0
 11
167.3857066131935
 21
124.8609001020358
 31
0.0
  0
LINE
  5
A0
330
1F
100
AcDbEntity
  8
taglio
100
AcDbLine
 10
167.3857066131935
 20
124.8609001020358
 30
0.0
 11
142.3857066131935
 21
124.8609001020358
 31
0.0
  0
LINE
  5
A1
330
1F
100
AcDbEntity
  8
taglio
100
AcDbLine
 10
142.3857066131935
 20
124.8609001020358
 30
0.0
 11
133.7160093930168
 21
124.8609001020358
 31
0.0
  0
ARC
  5
A2
330
1F
100
AcDbEntity
  8
taglio
100
AcDbCircle
 10
133.7160093930168
 20
127.8609001020358
 30
0.0
 40
3.0
100
AcDbArc
 50
203.5781784782012
 51
270.0
  0
ARC
  5
A3
330
1F
100
AcDbEntity
  8
taglio
100
AcDbCircle
 10
115.3857066131935
 20
119.8609001020357
 30
0.0
 40
17.00000000000002
100
AcDbArc
 50
23.57817847820201
 51
336.4218215217982
  0
ARC
  5
A4
330
1F
100
AcDbEntity
  8
taglio
100
AcDbCircle
 10
133.7160093930168
 20
111.8609001020357
 30
0.0
 40
3.0
100
AcDbArc
 50
90.0
 51
156.4218215217985
  0
LINE
  5
A5
330
1F
100
AcDbEntity
  8
taglio
100
AcDbLine
 10
133.7160093930168
 20
114.8609001020357
 30
0.0
 11
142.3857066131935
 21
114.8609001020358
 31
0.0
  0
LINE
  5
A6
330
1F
100
AcDbEntity
  8
taglio
100
AcDbLine
 10
142.3857066131935
 20
114.8609001020358
 30
0.0
 11
167.3857066131935
 21
114.8609001020358
 31
0.0
  0
LINE
  5
A7
330
1F
100
AcDbEntity
  8
taglio
100
AcDbLine
 10
167.3857066131935
 20
114.8609001020358
 30
0.0
 11
176.0554038333701
 21
114.8609001020358
 31
0.0
  0
ARC
  5
A8
330
1F
100
AcDbEntity
  8
taglio
100
AcDbCircle
 10
176.0554038333701
 20
111.8609001020358
 30
0.0
 40
3.0
100
AcDbArc
 50
23.57817847820031
 51
90.0
  0
LINE
  5
A9
330
1F
100
AcDbEntity
  8
taglio
100
AcDbLine
 10
28.18648071908643
 20
193.3699073111785
 30
0.0
 11
26.53361523104996
 21
180.9734161509055
 31
0.0
  0
ARC
  5
AA
330
1F
100
AcDbEntity
  8
taglio
100
AcDbCircle
 10
23.55993152900206
 20
181.3699073111786
 30
0.0
 40
3.0
100
AcDbArc
 50
269.9999999999965
 51
352.4053566314085
  0
LINE
  5
AB
330
1F
100
AcDbEntity
  8
taglio
100
AcDbLine
 10
23.55993152900189
 20
178.3699073111786
 30
0.0
 11
12.81302990917084
 21
178.3699073111784
 31
0.0
  0
ARC
  5
AC
330
1F
100
AcDbEntity
  8
taglio
100
AcDbCircle
 10
12.81302990917084
 20
181.3699073111784
 30
0.0
 40
3.0
100
AcDbArc
 50
187.5946433685877
 51
269.9999999999998
  0
LINE
  5
AD
330
1F
100
AcDbEntity
  8
taglio
100
AcDbLine
 10
9.839346207122844
 20
180.9734161509056
 30
0.0
 11
8.18648071908642
 21
193.3699073111785
 31
0.0
  0
LINE
  5
AE
330
1F
100
AcDbEntity
  8
taglio
100
AcDbLine
 10
8.18648071908642
 20
193.3699073111785
 30
0.0
 11
-4.313519280913511
 21
193.3699073111785
 31
0.0
  0
LINE
  5
AF
330
1F
100
AcDbEntity
  8
taglio
100
AcDbLine
 10
-4.313519280913511
 20
193.3699073111785
 30
0.0
 11
-24.31351928091351
 21
193.3699073111785
 31
0.0
  0
LINE
  5
B0
330
1F
100
AcDbEntity
  8
taglio
100
AcDbLine
 10
-24.31351928091351
 20
193.3699073111785
 30
0.0
 11
-11.91702812064068
 21
191.717041823142
 31
0.0
  0
ARC
  5
B1
330
1F
100
AcDbEntity
  8
taglio
100
AcDbCircle
 10
-12.31351928091374
 20
188.7433581210941
 30
0.0
 40
3.0
100
AcDbArc
 50
359.9999999999968
 51
82.40535663140848
  0
LINE
  5
B2
330
1F
100
AcDbEntity
  8
taglio
100
AcDbLine
 10
-9.313519280913738
 20
188.7433581210939
 30
0.0
 11
-9.313519280913539
 21
177.9964565012629
 31
0.0
  0
ARC
  5
B3
330
1F
100
AcDbEntity
  8
taglio
100
AcDbCircle
 10
-12.31351928091354
 20
177.9964565012629
 30
0.0
 40
3.0
100
AcDbArc
 50
277.5946433685875
 51
0.0
  0
LINE
  5
B4
330
1F
100
AcDbEntity
  8
taglio
100
AcDbLine
 10
-11.91702812064068
 20
175.0227727992149
 30
0.0
 11
-24.31351928091357
 21
173.3699073111784
 31
0.0
  0
LINE
  5
B5
330
1F
100
AcDbEntity
  8
taglio
100
AcDbLine
 10
-24.31351928091357
 20
173.3699073111784
 30
0.0
 11
-24.31351928091357
 21
153.3699073111784
 31
0.0
  0
LINE
  5
B6
330
1F
100
AcDbEntity
  8
taglio
100
AcDbLine
 10
-24.31351928091357
 20
153.3699073111784
 30
0.0
 11
-69.31351928091357
 21
153.3699073111785
 31
0.0
  0
LINE
  5
B7
330
1F
100
AcDbEntity
  8
taglio
100
AcDbLine
 10
-69.31351928091357
 20
153.3699073111785
 30
0.0
 11
-69.31351928091351
 21
173.3699073111784
 31
0.0
  0
LINE
  5
B8
330
1F
100
AcDbEntity
  8
taglio
100
AcDbLine
 10
-69.31351928091351
 20
173.3699073111784
 30
0.0
 11
-81.71001044118628
 21
175.0227727992149
 31
0.0
  0
ARC
  5
B9
330
1F
100
AcDbEntity
  8
taglio
100
AcDbCircle
 10
-81.31351928091345
 20
177.9964565012629
 30
0.0
 40
3.0
100
AcDbArc
 50
180.0
 51
262.4053566314123
  0
LINE
  5
BA
330
1F
100
AcDbEntity
  8
taglio
100
AcDbLine
 10
-84.31351928091345
 20
177.9964565012629
 30
0.0
 11
-84.31351928091328
 21
188.7433581210939
 31
0.0
  0
ARC
  5
BB
330
1F
100
AcDbEntity
  8
taglio
100
AcDbCircle
 10
-81.31351928091328
 20
188.7433581210941
 30
0.0
 40
3.0
100
AcDbArc
 50
97.5946433685915
 51
180.0000000000032
  0
LINE
  5
BC
330
1F
100
AcDbEntity
  8
taglio
100
AcDbLine
 10
-81.71001044118634
 20
191.717041823142
 30
0.0
 11
-69.31351928091351
 21
193.3699073111785
 31
0.0
  0
LINE
  5
BD
330
1F
100
AcDbEntity
  8
taglio
100
AcDbLine
 10
-69.31351928091351
 20
193.3699073111785
 30
0.0
 11
-109.3135192809135
 21
193.3699073111785
 31
0.0
  0
LINE
  5
BE
330
1F
100
AcDbEntity
  8
taglio
100
AcDbLine
 10
-109.3135192809135
 20
193.3699073111785
 30
0.0
 11
-109.3135192809135
 21
253.3699073111785
 31
0.0
  0
LINE
  5
BF
330
1F
100
AcDbEntity
  8
taglio
100
AcDbLine
 10
-109.3135192809135
 20
253.3699073111785
 30
0.0
 11
-69.31351928091351
 21
253.3699073111785
 31
0.0
  0
LINE
  5
C0
330
1F
100
AcDbEntity
  8
taglio
100
AcDbLine
 10
-69.31351928091351
 20
253.3699073111785
 30
0.0
 11
-81.71001044118634
 21
255.0227727992149
 31
0.0
  0
ARC
  5
C1
330
1F
100
AcDbEntity
  8
taglio
100
AcDbCircle
 10
-81.31351928091328
 20
257.9964565012629
 30
0.0
 40
3.0
100
AcDbArc
 50
179.9999999999967
 51
262.4053566314085
  0
LINE
  5
C2
330
1F
100
AcDbEntity
  8
taglio
100
AcDbLine
 10
-84.31351928091328
 20
257.996456501263
 30
0.0
 11
-84.31351928091345
 21
268.7433581210941
 31
0.0
  0
ARC
  5
C3
330
1F
100
AcDbEntity
  8
taglio
100
AcDbCircle
 10
-81.31351928091345
 20
268.7433581210941
 30
0.0
 40
3.0
100
AcDbArc
 50
97.5946433685877
 51
180.0
  0
LINE
  5
C4
330
1F
100
AcDbEntity
  8
taglio
100
AcDbLine
 10
-81.71001044118628
 20
271.717041823142
 30
0.0
 11
-69.31351928091351
 21
273.3699073111785
 31
0.0
  0
LINE
  5
C5
330
1F
100
AcDbEntity
  8
taglio
100
AcDbLine
 10
-69.31351928091351
 20
273.3699073111785
 30
0.0
 11
-69.31351928091351
 21
293.3699073111785
 31
0.0
  0
LINE
  5
C6
330
1F
100
AcDbEntity
  8
taglio
100
AcDbLine
 10
-69.31351928091351
 20
293.3699073111785
 30
0.0
 11
-24.31351928091351
 21
293.3699073111785
 31
0.0
  0
LINE
  5
C7
330
1F
100
AcDbEntity
  8
taglio
100
AcDbLine
 10
-24.31351928091351
 20
293.3699073111785
 30
0.0
 11
-24.31351928091354
 21
273.3699073111785
 31
0.0
  0
LINE
  5
C8
330
1F
100
AcDbEntity
  8
taglio
100
AcDbLine
 10
-24.31351928091354
 20
273.3699073111785
 30
0.0
 11
-11.91702812064068
 21
271.717041823142
 31
0.0
  0
ARC
  5
C9
330
1F
100
AcDbEntity
  8
taglio
100
AcDbCircle
 10
-12.31351928091354
 20
268.7433581210941
 30
0.0
 40
3.0
100
AcDbArc
 50
0.0
 51
82.40535663141243
  0
LINE
  5
CA
330
1F
100
AcDbEntity
  8
taglio
100
AcDbLine
 10
-9.313519280913539
 20
268.7433581210941
 30
0.0
 11
-9.313519280913738
 21
257.996456501263
 31
0.0
  0
ARC
  5
CB
330
1F
100
AcDbEntity
  8
taglio
100
AcDbCircle
 10
-12.31351928091374
 20
257.9964565012629
 30
0.0
 40
3.0
100
AcDbArc
 50
277.5946433685915
 51
0.0000000000032569
  0
LINE
  5
CC
330
1F
100
AcDbEntity
  8
taglio
100
AcDbLine
 10
-11.91702812064068
 20
255.0227727992149
 30
0.0
 11
-24.31351928091351
 21
253.3699073111785
 31
0.0
  0
LINE
  5
CD
330
1F
100
AcDbEntity
  8
taglio
100
AcDbLine
 10
-24.31351928091351
 20
253.3699073111785
 30
0.0
 11
-4.313519280913511
 21
253.3699073111785
 31
0.0
  0
LINE
  5
CE
330
1F
100
AcDbEntity
  8
taglio
100
AcDbLine
 10
-4.313519280913511
 20
253.3699073111785
 30
0.0
 11
8.18648071908649
 21
253.3699073111785
 31
0.0
  0
LINE
  5
CF
330
1F
100
AcDbEntity
  8
taglio
100
AcDbLine
 10
8.18648071908649
 20
253.3699073111785
 30
0.0
 11
9.839346207122958
 21
265.7663984714513
 31
0.0
  0
ARC
  5
D0
330
1F
100
AcDbEntity
  8
taglio
100
AcDbCircle
 10
12.81302990917095
 20
265.3699073111785
 30
0.0
 40
3.0
100
AcDbArc
 50
90.0
 51
172.4053566314128
  0
LINE
  5
D1
330
1F
100
AcDbEntity
  8
taglio
100
AcDbLine
 10
12.81302990917095
 20
268.3699073111785
 30
0.0
 11
23.559931529002
 21
268.3699073111783
 31
0.0
  0
ARC
  5
D2
330
1F
100
AcDbEntity
  8
taglio
100
AcDbCircle
 10
23.55993152900217
 20
265.3699073111783
 30
0.0
 40
3.0
100
AcDbArc
 50
7.594643368591527
 51
90.00000000000325
  0
LINE
  5
D3
330
1F
100
AcDbEntity
  8
taglio
100
AcDbLine
 10
26.53361523105008
 20
265.7663984714513
 30
0.0
 11
28.18648071908652
 21
253.3699073111785
 31
0.0
  0
LINE
  5
D4
330
1F
100
AcDbEntity
  8
taglio
100
AcDbLine
 10
28.18648071908652
 20
253.3699073111785
 30
0.0
 11
40.68648071908649
 21
253.3699073111785
 31
0.0
  0
LINE
  5
D5
330
1F
100
AcDbEntity
  8
taglio
100
AcDbLine
 10
40.68648071908649
 20
253.3699073111785
 30
0.0
 11
40.68648071908649
 21
238.3699073111785
 31
0.0
  0
LINE
  5
D6
330
1F
100
AcDbEntity
  8
taglio
100
AcDbLine
 10
40.68648071908649
 20
238.3699073111785
 30
0.0
 11
53.08297187935938
 21
236.7170418231421
 31
0.0
  0
ARC
  5
D7
330
1F
100
AcDbEntity
  8
taglio
100
AcDbCircle
 10
52.68648071908632
 20
233.7433581210942
 30
0.0
 40
3.0
100
AcDbArc
 50
359.9999999999973
 51
82.40535663140848
  0
LINE
  5
D8
330
1F
100
AcDbEntity
  8
taglio
100
AcDbLine
 10
55.68648071908632
 20
233.743358121094
 30
0.0
 11
55.68648071908652
 21
212.9964565012629
 31
0.0
  0
ARC
  5
D9
330
1F
100
AcDbEntity
  8
taglio
100
AcDbCircle
 10
52.68648071908652
 20
212.996456501263
 30
0.0
 40
3.0
100
AcDbArc
 50
277.5946433685872
 51
359.9999999999994
  0
LINE
  5
DA
330
1F
100
AcDbEntity
  8
taglio
100
AcDbLine
 10
53.08297187935935
 20
210.022772799215
 30
0.0
 11
40.68648071908649
 21
208.3699073111785
 31
0.0
  0
LINE
  5
DB
330
1F
100
AcDbEntity
  8
taglio
100
AcDbLine
 10
40.68648071908649
 20
208.3699073111785
 30
0.0
 11
40.68648071908649
 21
193.3699073111785
 31
0.0
  0
LINE
  5
DC
330
1F
100
AcDbEntity
  8
taglio
100
AcDbLine
 10
40.68648071908649
 20
193.3699073111785
 30
0.0
 11
28.18648071908643
 21
193.3699073111785
 31
0.0
  0
LINE
  5
DD
330
1F
100
AcDbEntity
  8
taglio
100
AcDbLine
 10
-53.91351928091353
 20
270.8699073111786
 30
0.0
 11
-39.71351928091357
 21
270.8699073111786
 31
0.0
  0
ARC
  5
DE
330
1F
100
AcDbEntity
  8
taglio
100
AcDbCircle
 10
-39.71351928091357
 20
273.7699073111785
 30
0.0
 40
2.9
100
AcDbArc
 50
270.0
 51
0.0
  0
LINE
  5
DF
330
1F
100
AcDbEntity
  8
taglio
100
AcDbLine
 10
-36.81351928091357
 20
273.7699073111785
 30
0.0
 11
-36.81351928091357
 21
273.8699073111785
 31
0.0
  0
LINE
  5
E0
330
1F
100
AcDbEntity
  8
taglio
100
AcDbLine
 10
-36.81351928091357
 20
273.8699073111785
 30
0.0
 11
-56.81351928091357
 21
273.8699073111785
 31
0.0
  0
LINE
  5
E1
330
1F
100
AcDbEntity
  8
taglio
100
AcDbLine
 10
-56.81351928091357
 20
273.8699073111785
 30
0.0
 11
-56.81351928091351
 21
273.7699073111785
 31
0.0
  0
ARC
  5
E2
330
1F
100
AcDbEntity
  8
taglio
100
AcDbCircle
 10
-53.91351928091353
 20
273.7699073111785
 30
0.0
 40
2.9
100
AcDbArc
 50
180.0
 51
270.0
  0
LINE
  5
E3
330
1F
100
AcDbEntity
  8
taglio
100
AcDbLine
 10
-36.81351928091357
 20
172.8699073111784
 30
0.0
 11
-56.81351928091357
 21
172.8699073111784
 31
0.0
  0
LINE
  5
E4
330
1F
100
AcDbEntity
  8
taglio
100
AcDbLine
 10
-56.81351928091357
 20
172.8699073111784
 30
0.0
 11
-56.81351928091351
 21
172.9699073111784
 31
0.0
  0
ARC
  5
E5
330
1F
100
AcDbEntity
  8
taglio
100
AcDbCircle
 10
-53.91351928091353
 20
172.9699073111784
 30
0.0
 40
2.9
100
AcDbArc
 50
90.0
 51
180.0
  0
LINE
  5
E6
330
1F
100
AcDbEntity
  8
taglio
100
AcDbLine
 10
-53.91351928091353
 20
175.8699073111784
 30
0.0
 11
-39.71351928091357
 21
175.8699073111784
 31
0.0
  0
ARC
  5
E7
330
1F
100
AcDbEntity
  8
taglio
100
AcDbCircle
 10
-39.71351928091357
 20
172.9699073111784
 30
0.0
 40
2.9
100
AcDbArc
 50
0.0
 51
90.0
  0
LINE
  5
E8
330
1F
100
AcDbEntity
  8
taglio
100
AcDbLine
 10
-36.81351928091357
 20
172.9699073111784
 30
0.0
 11
-36.81351928091357
 21
172.8699073111784
 31
0.0
  0
LINE
  5
E9
330
1F
100
AcDbEntity
  8
taglio
100
AcDbLine
 10
-86.31351928091357
 20
211.2699073111785
 30
0.0
 11
-86.31351928091357
 21
235.4699073111785
 31
0.0
  0
ARC
  5
EA
330
1F
100
AcDbEntity
  8
taglio
100
AcDbCircle
 10
-89.21351928091354
 20
235.4699073111785
 30
0.0
 40
2.9
100
AcDbArc
 50
0.0
 51
89.99999999999916
  0
LINE
  5
EB
330
1F
100
AcDbEntity
  8
taglio
100
AcDbLine
 10
-89.21351928091354
 20
238.3699073111785
 30
0.0
 11
-89.31351928091357
 21
238.3699073111785
 31
0.0
  0
LINE
  5
EC
330
1F
100
AcDbEntity
  8
taglio
100
AcDbLine
 10
-89.31351928091357
 20
238.3699073111785
 30
0.0
 11
-89.31351928091357
 21
208.3699073111785
 31
0.0
  0
LINE
  5
ED
330
1F
100
AcDbEntity
  8
taglio
100
AcDbLine
 10
-89.31351928091357
 20
208.3699073111785
 30
0.0
 11
-89.21351928091349
 21
208.3699073111785
 31
0.0
  0
ARC
  5
EE
330
1F
100
AcDbEntity
  8
taglio
100
AcDbCircle
 10
-89.21351928091354
 20
211.2699073111785
 30
0.0
 40
2.9
100
AcDbArc
 50
270.0000000000008
 51
0.0
  0
POLYLINE
  5
EF
330
1F
100
AcDbEntity
  8
taglio
100
AcDb2dPolyline
 66
     1
 10
0.0
 20
0.0
 30
0.0
  0
VERTEX
  5
F0
330
EF
100
AcDbEntity
  8
taglio
100
AcDbVertex
100
AcDb2dVertex
 10
-49.81351928091351
 20
245.8699073111784
 30
0.0
  0
VERTEX
  5
F1
330
EF
100
AcDbEntity
  8
taglio
100
AcDbVertex
100
AcDb2dVertex
 10
-43.81351928091351
 20
245.8699073111784
 30
0.0
  0
VERTEX
  5
F2
330
EF
100
AcDbEntity
  8
taglio
100
AcDbVertex
100
AcDb2dVertex
 10
-43.81351928091351
 20
239.8699073111784
 30
0.0
  0
VERTEX
  5
F3
330
EF
100
AcDbEntity
  8
taglio
100
AcDbVertex
100
AcDb2dVertex
 10
-49.81351928091351
 20
239.8699073111784
 30
0.0
  0
VERTEX
  5
F4
330
EF
100
AcDbEntity
  8
taglio
100
AcDbVertex
100
AcDb2dVertex
 10
-49.81351928091351
 20
245.8699073111784
 30
0.0
  0
SEQEND
  5
F5
330
EF
100
AcDbEntity
  8
taglio
  0
POLYLINE
  5
F6
330
1F
100
AcDbEntity
  8
taglio
100
AcDb2dPolyline
 66
     1
 10
0.0
 20
0.0
 30
0.0
  0
VERTEX
  5
F7
330
F6
100
AcDbEntity
  8
taglio
100
AcDbVertex
100
AcDb2dVertex
 10
-49.81351928091351
 20
206.8699073111784
 30
0.0
  0
VERTEX
  5
F8
330
F6
100
AcDbEntity
  8
taglio
100
AcDbVertex
100
AcDb2dVertex
 10
-43.81351928091351
 20
206.8699073111784
 30
0.0
  0
VERTEX
  5
F9
330
F6
100
AcDbEntity
  8
taglio
100
AcDbVertex
100
AcDb2dVertex
 10
-43.81351928091351
 20
200.8699073111784
 30
0.0
  0
VERTEX
  5
FA
330
F6
100
AcDbEntity
  8
taglio
100
AcDbVertex
100
AcDb2dVertex
 10
-49.81351928091351
 20
200.8699073111784
 30
0.0
  0
VERTEX
  5
FB
330
F6
100
AcDbEntity
  8
taglio
100
AcDbVertex
100
AcDb2dVertex
 10
-49.81351928091351
 20
206.8699073111784
 30
0.0
  0
SEQEND
  5
FC
330
F6
100
AcDbEntity
  8
taglio
  0
LINE
  5
FD
330
1F
100
AcDbEntity
  8
taglio
100
AcDbLine
 10
-188.0990941572276
 20
193.3699073111785
 30
0.0
 11
-189.7519596452641
 21
180.9734161509055
 31
0.0
  0
ARC
  5
FE
330
1F
100
AcDbEntity
  8
taglio
100
AcDbCircle
 10
-192.725643347312
 20
181.3699073111786
 30
0.0
 40
3.0
100
AcDbArc
 50
269.9999999999968
 51
352.4053566314085
  0
LINE
  5
FF
330
1F
100
AcDbEntity
  8
taglio
100
AcDbLine
 10
-192.7256433473122
 20
178.3699073111786
 30
0.0
 11
-203.4725449671432
 21
178.3699073111784
 31
0.0
  0
ARC
  5
100
330
1F
100
AcDbEntity
  8
taglio
100
AcDbCircle
 10
-203.4725449671432
 20
181.3699073111784
 30
0.0
 40
3.0
100
AcDbArc
 50
187.5946433685877
 51
270.0
  0
LINE
  5
101
330
1F
100
AcDbEntity
  8
taglio
100
AcDbLine
 10
-206.4462286691912
 20
180.9734161509056
 30
0.0
 11
-208.0990941572276
 21
193.3699073111785
 31
0.0
  0
LINE
  5
102
330
1F
100
AcDbEntity
  8
taglio
100
AcDbLine
 10
-208.0990941572276
 20
193.3699073111785
 30
0.0
 11
-220.5990941572276
 21
193.3699073111785
 31
0.0
  0
LINE
  5
103
330
1F
100
AcDbEntity
  8
taglio
100
AcDbLine
 10
-220.5990941572276
 20
193.3699073111785
 30
0.0
 11
-240.5990941572276
 21
193.3699073111785
 31
0.0
  0
LINE
  5
104
330
1F
100
AcDbEntity
  8
taglio
100
AcDbLine
 10
-240.5990941572276
 20
193.3699073111785
 30
0.0
 11
-228.2026029969547
 21
191.717041823142
 31
0.0
  0
ARC
  5
105
330
1F
100
AcDbEntity
  8
taglio
100
AcDbCircle
 10
-228.5990941572278
 20
188.7433581210941
 30
0.0
 40
3.0
100
AcDbArc
 50
359.9999999999968
 51
82.40535663140848
  0
LINE
  5
106
330
1F
100
AcDbEntity
  8
taglio
100
AcDbLine
 10
-225.5990941572278
 20
188.7433581210939
 30
0.0
 11
-225.5990941572276
 21
177.9964565012629
 31
0.0
  0
ARC
  5
107
330
1F
100
AcDbEntity
  8
taglio
100
AcDbCircle
 10
-228.5990941572276
 20
177.9964565012629
 30
0.0
 40
3.0
100
AcDbArc
 50
277.5946433685877
 51
0.0
  0
LINE
  5
108
330
1F
100
AcDbEntity
  8
taglio
100
AcDbLine
 10
-228.2026029969547
 20
175.0227727992149
 30
0.0
 11
-240.5990941572276
 21
173.3699073111784
 31
0.0
  0
LINE
  5
109
330
1F
100
AcDbEntity
  8
taglio
100
AcDbLine
 10
-240.5990941572276
 20
173.3699073111784
 30
0.0
 11
-240.5990941572276
 21
153.3699073111784
 31
0.0
  0
LINE
  5
10A
330
1F
100
AcDbEntity
  8
taglio
100
AcDbLine
 10
-240.5990941572276
 20
153.3699073111784
 30
0.0
 11
-285.5990941572276
 21
153.3699073111785
 31
0.0
  0
LINE
  5
10B
330
1F
100
AcDbEntity
  8
taglio
100
AcDbLine
 10
-285.5990941572276
 20
153.3699073111785
 30
0.0
 11
-285.5990941572276
 21
173.3699073111784
 31
0.0
  0
LINE
  5
10C
330
1F
100
AcDbEntity
  8
taglio
100
AcDbLine
 10
-285.5990941572276
 20
173.3699073111784
 30
0.0
 11
-297.9955853175003
 21
175.0227727992149
 31
0.0
  0
ARC
  5
10D
330
1F
100
AcDbEntity
  8
taglio
100
AcDbCircle
 10
-297.5990941572275
 20
177.9964565012629
 30
0.0
 40
3.0
100
AcDbArc
 50
180.0
 51
262.4053566314129
  0
LINE
  5
10E
330
1F
100
AcDbEntity
  8
taglio
100
AcDbLine
 10
-300.5990941572275
 20
177.9964565012629
 30
0.0
 11
-300.5990941572273
 21
188.7433581210939
 31
0.0
  0
ARC
  5
10F
330
1F
100
AcDbEntity
  8
taglio
100
AcDbCircle
 10
-297.5990941572273
 20
188.7433581210941
 30
0.0
 40
3.0
100
AcDbArc
 50
97.5946433685915
 51
180.0000000000032
  0
LINE
  5
110
330
1F
100
AcDbEntity
  8
taglio
100
AcDbLine
 10
-297.9955853175004
 20
191.717041823142
 30
0.0
 11
-285.5990941572276
 21
193.3699073111785
 31
0.0
  0
LINE
  5
111
330
1F
100
AcDbEntity
  8
taglio
100
AcDbLine
 10
-285.5990941572276
 20
193.3699073111785
 30
0.0
 11
-325.5990941572276
 21
193.3699073111785
 31
0.0
  0
LINE
  5
112
330
1F
100
AcDbEntity
  8
taglio
100
AcDbLine
 10
-325.5990941572276
 20
193.3699073111785
 30
0.0
 11
-325.5990941572276
 21
253.3699073111785
 31
0.0
  0
LINE
  5
113
330
1F
100
AcDbEntity
  8
taglio
100
AcDbLine
 10
-325.5990941572276
 20
253.3699073111785
 30
0.0
 11
-285.5990941572276
 21
253.3699073111785
 31
0.0
  0
LINE
  5
114
330
1F
100
AcDbEntity
  8
taglio
100
AcDbLine
 10
-285.5990941572276
 20
253.3699073111785
 30
0.0
 11
-297.9955853175004
 21
255.0227727992149
 31
0.0
  0
ARC
  5
115
330
1F
100
AcDbEntity
  8
taglio
100
AcDbCircle
 10
-297.5990941572273
 20
257.9964565012629
 30
0.0
 40
3.0
100
AcDbArc
 50
179.9999999999967
 51
262.4053566314085
  0
LINE
  5
116
330
1F
100
AcDbEntity
  8
taglio
100
AcDbLine
 10
-300.5990941572273
 20
257.996456501263
 30
0.0
 11
-300.5990941572275
 21
268.7433581210941
 31
0.0
  0
ARC
  5
117
330
1F
100
AcDbEntity
  8
taglio
100
AcDbCircle
 10
-297.5990941572275
 20
268.7433581210941
 30
0.0
 40
3.0
100
AcDbArc
 50
97.59464336858713
 51
180.0
  0
LINE
  5
118
330
1F
100
AcDbEntity
  8
taglio
100
AcDbLine
 10
-297.9955853175003
 20
271.717041823142
 30
0.0
 11
-285.5990941572276
 21
273.3699073111785
 31
0.0
  0
LINE
  5
119
330
1F
100
AcDbEntity
  8
taglio
100
AcDbLine
 10
-285.5990941572276
 20
273.3699073111785
 30
0.0
 11
-285.5990941572276
 21
293.3699073111785
 31
0.0
  0
LINE
  5
11A
330
1F
100
AcDbEntity
  8
taglio
100
AcDbLine
 10
-285.5990941572276
 20
293.3699073111785
 30
0.0
 11
-240.5990941572276
 21
293.3699073111785
 31
0.0
  0
LINE
  5
11B
330
1F
100
AcDbEntity
  8
taglio
100
AcDbLine
 10
-240.5990941572276
 20
293.3699073111785
 30
0.0
 11
-240.5990941572276
 21
273.3699073111785
 31
0.0
  0
LINE
  5
11C
330
1F
100
AcDbEntity
  8
taglio
100
AcDbLine
 10
-240.5990941572276
 20
273.3699073111785
 30
0.0
 11
-228.2026029969547
 21
271.717041823142
 31
0.0
  0
ARC
  5
11D
330
1F
100
AcDbEntity
  8
taglio
100
AcDbCircle
 10
-228.5990941572276
 20
268.7433581210941
 30
0.0
 40
3.0
100
AcDbArc
 50
0.0
 51
82.40535663141233
  0
LINE
  5
11E
330
1F
100
AcDbEntity
  8
taglio
100
AcDbLine
 10
-225.5990941572276
 20
268.7433581210941
 30
0.0
 11
-225.5990941572278
 21
257.996456501263
 31
0.0
  0
ARC
  5
11F
330
1F
100
AcDbEntity
  8
taglio
100
AcDbCircle
 10
-228.5990941572278
 20
257.9964565012629
 30
0.0
 40
3.0
100
AcDbArc
 50
277.5946433685915
 51
0.0000000000032569
  0
LINE
  5
120
330
1F
100
AcDbEntity
  8
taglio
100
AcDbLine
 10
-228.2026029969547
 20
255.0227727992149
 30
0.0
 11
-240.5990941572276
 21
253.3699073111785
 31
0.0
  0
LINE
  5
121
330
1F
100
AcDbEntity
  8
taglio
100
AcDbLine
 10
-240.5990941572276
 20
253.3699073111785
 30
0.0
 11
-220.5990941572276
 21
253.3699073111785
 31
0.0
  0
LINE
  5
122
330
1F
100
AcDbEntity
  8
taglio
100
AcDbLine
 10
-220.5990941572276
 20
253.3699073111785
 30
0.0
 11
-208.0990941572276
 21
253.3699073111785
 31
0.0
  0
LINE
  5
123
330
1F
100
AcDbEntity
  8
taglio
100
AcDbLine
 10
-208.0990941572276
 20
253.3699073111785
 30
0.0
 11
-206.4462286691911
 21
265.7663984714513
 31
0.0
  0
ARC
  5
124
330
1F
100
AcDbEntity
  8
taglio
100
AcDbCircle
 10
-203.4725449671431
 20
265.3699073111785
 30
0.0
 40
3.0
100
AcDbArc
 50
90.0
 51
172.4053566314129
  0
LINE
  5
125
330
1F
100
AcDbEntity
  8
taglio
100
AcDbLine
 10
-203.4725449671431
 20
268.3699073111785
 30
0.0
 11
-192.7256433473121
 21
268.3699073111783
 31
0.0
  0
ARC
  5
126
330
1F
100
AcDbEntity
  8
taglio
100
AcDbCircle
 10
-192.7256433473119
 20
265.3699073111783
 30
0.0
 40
3.0
100
AcDbArc
 50
7.594643368591517
 51
90.00000000000325
  0
LINE
  5
127
330
1F
100
AcDbEntity
  8
taglio
100
AcDbLine
 10
-189.751959645264
 20
265.7663984714513
 30
0.0
 11
-188.0990941572275
 21
253.3699073111785
 31
0.0
  0
LINE
  5
128
330
1F
100
AcDbEntity
  8
taglio
100
AcDbLine
 10
-188.0990941572275
 20
253.3699073111785
 30
0.0
 11
-175.5990941572276
 21
253.3699073111785
 31
0.0
  0
LINE
  5
129
330
1F
100
AcDbEntity
  8
taglio
100
AcDbLine
 10
-175.5990941572276
 20
253.3699073111785
 30
0.0
 11
-175.5990941572276
 21
238.3699073111785
 31
0.0
  0
LINE
  5
12A
330
1F
100
AcDbEntity
  8
taglio
100
AcDbLine
 10
-175.5990941572276
 20
238.3699073111785
 30
0.0
 11
-163.2026029969547
 21
236.7170418231421
 31
0.0
  0
ARC
  5
12B
330
1F
100
AcDbEntity
  8
taglio
100
AcDbCircle
 10
-163.5990941572277
 20
233.7433581210942
 30
0.0
 40
3.0
100
AcDbArc
 50
359.9999999999973
 51
82.40535663140848
  0
LINE
  5
12C
330
1F
100
AcDbEntity
  8
taglio
100
AcDbLine
 10
-160.5990941572277
 20
233.743358121094
 30
0.0
 11
-160.5990941572275
 21
212.9964565012629
 31
0.0
  0
ARC
  5
12D
330
1F
100
AcDbEntity
  8
taglio
100
AcDbCircle
 10
-163.5990941572275
 20
212.996456501263
 30
0.0
 40
3.0
100
AcDbArc
 50
277.5946433685871
 51
359.9999999999994
  0
LINE
  5
12E
330
1F
100
AcDbEntity
  8
taglio
100
AcDbLine
 10
-163.2026029969547
 20
210.022772799215
 30
0.0
 11
-175.5990941572276
 21
208.3699073111785
 31
0.0
  0
LINE
  5
12F
330
1F
100
AcDbEntity
  8
taglio
100
AcDbLine
 10
-175.5990941572276
 20
208.3699073111785
 30
0.0
 11
-175.5990941572276
 21
193.3699073111785
 31
0.0
  0
LINE
  5
130
330
1F
100
AcDbEntity
  8
taglio
100
AcDbLine
 10
-175.5990941572276
 20
193.3699073111785
 30
0.0
 11
-188.0990941572276
 21
193.3699073111785
 31
0.0
  0
LINE
  5
131
330
1F
100
AcDbEntity
  8
taglio
100
AcDbLine
 10
-253.0990941572276
 20
172.8699073111784
 30
0.0
 11
-273.0990941572276
 21
172.8699073111784
 31
0.0
  0
LINE
  5
132
330
1F
100
AcDbEntity
  8
taglio
100
AcDbLine
 10
-273.0990941572276
 20
172.8699073111784
 30
0.0
 11
-273.0990941572276
 21
172.9699073111784
 31
0.0
  0
ARC
  5
133
330
1F
100
AcDbEntity
  8
taglio
100
AcDbCircle
 10
-270.1990941572276
 20
172.9699073111784
 30
0.0
 40
2.9
100
AcDbArc
 50
90.0
 51
180.0
  0
LINE
  5
134
330
1F
100
AcDbEntity
  8
taglio
100
AcDbLine
 10
-270.1990941572276
 20
175.8699073111784
 30
0.0
 11
-255.9990941572276
 21
175.8699073111784
 31
0.0
  0
ARC
  5
135
330
1F
100
AcDbEntity
  8
taglio
100
AcDbCircle
 10
-255.9990941572276
 20
172.9699073111784
 30
0.0
 40
2.9
100
AcDbArc
 50
0.0
 51
90.0
  0
LINE
  5
136
330
1F
100
AcDbEntity
  8
taglio
100
AcDbLine
 10
-253.0990941572276
 20
172.9699073111784
 30
0.0
 11
-253.0990941572276
 21
172.8699073111784
 31
0.0
  0
LINE
  5
137
330
1F
100
AcDbEntity
  8
taglio
100
AcDbLine
 10
-270.1990941572276
 20
270.8699073111786
 30
0.0
 11
-255.9990941572276
 21
270.8699073111786
 31
0.0
  0
ARC
  5
138
330
1F
100
AcDbEntity
  8
taglio
100
AcDbCircle
 10
-255.9990941572276
 20
273.7699073111785
 30
0.0
 40
2.9
100
AcDbArc
 50
270.0
 51
0.0
  0
LINE
  5
139
330
1F
100
AcDbEntity
  8
taglio
100
AcDbLine
 10
-253.0990941572276
 20
273.7699073111785
 30
0.0
 11
-253.0990941572276
 21
273.8699073111785
 31
0.0
  0
LINE
  5
13A
330
1F
100
AcDbEntity
  8
taglio
100
AcDbLine
 10
-253.0990941572276
 20
273.8699073111785
 30
0.0
 11
-273.0990941572276
 21
273.8699073111785
 31
0.0
  0
LINE
  5
13B
330
1F
100
AcDbEntity
  8
taglio
100
AcDbLine
 10
-273.0990941572276
 20
273.8699073111785
 30
0.0
 11
-273.0990941572276
 21
273.7699073111785
 31
0.0
  0
ARC
  5
13C
330
1F
100
AcDbEntity
  8
taglio
100
AcDbCircle
 10
-270.1990941572276
 20
273.7699073111785
 30
0.0
 40
2.9
100
AcDbArc
 50
180.0
 51
270.0
  0
POLYLINE
  5
13D
330
1F
100
AcDbEntity
  8
taglio
100
AcDb2dPolyline
 66
     1
 10
0.0
 20
0.0
 30
0.0
  0
VERTEX
  5
13E
330
13D
100
AcDbEntity
  8
taglio
100
AcDbVertex
100
AcDb2dVertex
 10
-266.0990941572276
 20
206.8699073111785
 30
0.0
  0
VERTEX
  5
13F
330
13D
100
AcDbEntity
  8
taglio
100
AcDbVertex
100
AcDb2dVertex
 10
-260.0990941572276
 20
206.8699073111785
 30
0.0
  0
VERTEX
  5
140
330
13D
100
AcDbEntity
  8
taglio
100
AcDbVertex
100
AcDb2dVertex
 10
-260.0990941572276
 20
200.8699073111785
 30
0.0
  0
VERTEX
  5
141
330
13D
100
AcDbEntity
  8
taglio
100
AcDbVertex
100
AcDb2dVertex
 10
-266.0990941572276
 20
200.8699073111785
 30
0.0
  0
VERTEX
  5
142
330
13D
100
AcDbEntity
  8
taglio
100
AcDbVertex
100
AcDb2dVertex
 10
-266.0990941572276
 20
206.8699073111785
 30
0.0
  0
SEQEND
  5
143
330
13D
100
AcDbEntity
  8
taglio
  0
POLYLINE
  5
144
330
1F
100
AcDbEntity
  8
taglio
100
AcDb2dPolyline
 66
     1
 10
0.0
 20
0.0
 30
0.0
  0
VERTEX
  5
145
330
144
100
AcDbEntity
  8
taglio
100
AcDbVertex
100
AcDb2dVertex
 10
-266.0990941572276
 20
245.8699073111785
 30
0.0
  0
VERTEX
  5
146
330
144
100
AcDbEntity
  8
taglio
100
AcDbVertex
100
AcDb2dVertex
 10
-260.0990941572276
 20
245.8699073111785
 30
0.0
  0
VERTEX
  5
147
330
144
100
AcDbEntity
  8
taglio
100
AcDbVertex
100
AcDb2dVertex
 10
-260.0990941572276
 20
239.8699073111785
 30
0.0
  0
VERTEX
  5
148
330
144
100
AcDbEntity
  8
taglio
100
AcDbVertex
100
AcDb2dVertex
 10
-266.0990941572276
 20
239.8699073111785
 30
0.0
  0
VERTEX
  5
149
330
144
100
AcDbEntity
  8
taglio
100
AcDbVertex
100
AcDb2dVertex
 10
-266.0990941572276
 20
245.8699073111785
 30
0.0
  0
SEQEND
  5
14A
330
144
100
AcDbEntity
  8
taglio
  0
LINE
  5
14B
330
1F
100
AcDbEntity
  8
taglio
100
AcDbLine
 10
-302.5990941572276
 20
211.2699073111785
 30
0.0
 11
-302.5990941572276
 21
235.4699073111785
 31
0.0
  0
ARC
  5
14C
330
1F
100
AcDbEntity
  8
taglio
100
AcDbCircle
 10
-305.4990941572276
 20
235.4699073111785
 30
0.0
 40
2.9
100
AcDbArc
 50
0.0
 51
89.99999999999888
  0
LINE
  5
14D
330
1F
100
AcDbEntity
  8
taglio
100
AcDbLine
 10
-305.4990941572276
 20
238.3699073111785
 30
0.0
 11
-305.5990941572276
 21
238.3699073111785
 31
0.0
  0
LINE
  5
14E
330
1F
100
AcDbEntity
  8
taglio
100
AcDbLine
 10
-305.5990941572276
 20
238.3699073111785
 30
0.0
 11
-305.5990941572276
 21
208.3699073111785
 31
0.0
  0
LINE
  5
14F
330
1F
100
AcDbEntity
  8
taglio
100
AcDbLine
 10
-305.5990941572276
 20
208.3699073111785
 30
0.0
 11
-305.4990941572275
 21
208.3699073111785
 31
0.0
  0
ARC
  5
150
330
1F
100
AcDbEntity
  8
taglio
100
AcDbCircle
 10
-305.4990941572276
 20
211.2699073111785
 30
0.0
 40
2.9
100
AcDbArc
 50
270.0000000000011
 51
0.0
  0
CIRCLE
  5
151
330
1F
100
AcDbEntity
  8
taglio
100
AcDbCircle
 10
-483.3543082878107
 20
257.7137468639272
 30
0.0
 40
13.86789505932592
  0
LINE
  5
152
330
1F
100
AcDbEntity
  8
taglio
100
AcDbLine
 10
-603.3543082883336
 20
213.2336927708817
 30
0.0
 11
-603.3543082883336
 21
208.5129083817559
 31
0.0
  0
ARC
  5
153
330
1F
100
AcDbEntity
  8
taglio
100
AcDbCircle
 10
-599.3543082883336
 20
208.5129083817559
 30
0.0
 40
4.0
100
AcDbArc
 50
180.0
 51
258.6900675259823
  0
LINE
  5
154
330
1F
100
AcDbEntity
  8
taglio
100
AcDbLine
 10
-600.1387728288862
 20
204.5905856789921
 30
0.0
 11
-593.3543082883336
 21
203.2336927708817
 31
0.0
  0
LINE
  5
155
330
1F
100
AcDbEntity
  8
taglio
100
AcDbLine
 10
-593.3543082883336
 20
203.2336927708817
 30
0.0
 11
-507.3360903257716
 21
203.2336927708817
 31
0.0
  0
LINE
  5
156
330
1F
100
AcDbEntity
  8
taglio
100
AcDbLine
 10
-507.3360903257716
 20
203.2336927708817
 30
0.0
 11
-489.3647882822984
 21
203.2336927708816
 31
0.0
  0
ARC
  5
157
330
1F
100
AcDbEntity
  8
taglio
100
AcDbCircle
 10
-483.3543082881008
 20
168.753638678126
 30
0.0
 40
35.0
100
AcDbArc
 50
99.88830383461854
 51
125.1116961661645
  0
LINE
  5
158
330
1F
100
AcDbEntity
  8
taglio
100
AcDbLine
 10
-503.4853371910751
 20
197.3847699046006
 30
0.0
 11
-509.1820904869463
 21
201.8735068335193
 31
0.0
  0
LINE
  5
159
330
1F
100
AcDbEntity
  8
taglio
100
AcDbLine
 10
-509.1820904869463
 20
201.8735068335193
 30
0.0
 11
-516.4741764438471
 21
194.5814208765186
 31
0.0
  0
LINE
  5
15A
330
1F
100
AcDbEntity
  8
taglio
100
AcDbLine
 10
-516.4741764438471
 20
194.5814208765186
 30
0.0
 11
-511.9854395148504
 21
188.8846675807092
 31
0.0
  0
ARC
  5
15B
330
1F
100
AcDbEntity
  8
taglio
100
AcDbCircle
 10
-483.3543082881008
 20
168.753638678126
 30
0.0
 40
35.0
100
AcDbArc
 50
144.8883038346188
 51
170.1116961661638
  0
LINE
  5
15C
330
1F
100
AcDbEntity
  8
taglio
100
AcDbLine
 10
-517.8343623809385
 20
174.7641186718529
 30
0.0
 11
-525.0365915886797
 21
173.9099221069864
 31
0.0
  0
LINE
  5
15D
330
1F
100
AcDbEntity
  8
taglio
100
AcDbLine
 10
-525.0365915886797
 20
173.9099221069864
 30
0.0
 11
-525.0365915886819
 21
163.5973552487044
 31
0.0
  0
LINE
  5
15E
330
1F
100
AcDbEntity
  8
taglio
100
AcDbLine
 10
-525.0365915886819
 20
163.5973552487044
 30
0.0
 11
-517.8343623808564
 21
162.7431586839285
 31
0.0
  0
ARC
  5
15F
330
1F
100
AcDbEntity
  8
taglio
100
AcDbCircle
 10
-483.3543082881008
 20
168.753638678126
 30
0.0
 40
35.0
100
AcDbArc
 50
189.8883038346187
 51
215.1116961661642
  0
LINE
  5
160
330
1F
100
AcDbEntity
  8
taglio
100
AcDbLine
 10
-511.9854395145753
 20
148.6226097751517
 30
0.0
 11
-516.4741764437215
 21
142.9258564789922
 31
0.0
  0
LINE
  5
161
330
1F
100
AcDbEntity
  8
taglio
100
AcDbLine
 10
-516.4741764437215
 20
142.9258564789922
 30
0.0
 11
-509.1820904868632
 21
135.6337705220881
 31
0.0
  0
LINE
  5
162
330
1F
100
AcDbEntity
  8
taglio
100
AcDbLine
 10
-509.1820904868632
 20
135.6337705220881
 30
0.0
 11
-503.485337190684
 21
140.1225074513764
 31
0.0
  0
ARC
  5
163
330
1F
100
AcDbEntity
  8
taglio
100
AcDbCircle
 10
-483.3543082881008
 20
168.753638678126
 30
0.0
 40
35.0
100
AcDbArc
 50
234.8883038346187
 51
260.1116961661635
  0
LINE
  5
164
330
1F
100
AcDbEntity
  8
taglio
100
AcDbLine
 10
-489.3647882818277
 20
134.2735845852885
 30
0.0
 11
-488.5105917168913
 21
127.0713553769586
 31
0.0
  0
LINE
  5
165
330
1F
100
AcDbEntity
  8
taglio
100
AcDbLine
 10
-488.5105917168913
 20
127.0713553769586
 30
0.0
 11
-478.1980248587489
 21
127.0713553769562
 31
0.0
  0
LINE
  5
166
330
1F
100
AcDbEntity
  8
taglio
100
AcDbLine
 10
-478.1980248587489
 20
127.0713553769562
 30
0.0
 11
-477.3438282939032
 21
134.2735845853705
 31
0.0
  0
ARC
  5
167
330
1F
100
AcDbEntity
  8
taglio
100
AcDbCircle
 10
-483.3543082881008
 20
168.753638678126
 30
0.0
 40
35.0
100
AcDbArc
 50
279.8883038346193
 51
305.1116961661637
  0
LINE
  5
168
330
1F
100
AcDbEntity
  8
taglio
100
AcDbLine
 10
-463.2232793851267
 20
140.1225074516512
 30
0.0
 11
-457.5265260885969
 21
135.6337705222139
 31
0.0
  0
LINE
  5
169
330
1F
100
AcDbEntity
  8
taglio
100
AcDbLine
 10
-457.5265260885969
 20
135.6337705222139
 30
0.0
 11
-450.2344401318352
 21
142.9258564790751
 31
0.0
  0
LINE
  5
16A
330
1F
100
AcDbEntity
  8
taglio
100
AcDbLine
 10
-450.2344401318352
 20
142.9258564790751
 30
0.0
 11
-454.723177061351
 21
148.6226097755429
 31
0.0
  0
ARC
  5
16B
330
1F
100
AcDbEntity
  8
taglio
100
AcDbCircle
 10
-483.3543082881008
 20
168.753638678126
 30
0.0
 40
35.0
100
AcDbArc
 50
324.8883038346199
 51
350.1116961661638
  0
LINE
  5
16C
330
1F
100
AcDbEntity
  8
taglio
100
AcDbLine
 10
-448.8742541952631
 20
162.7431586843993
 30
0.0
 11
-441.6720249868604
 21
163.5973552493442
 31
0.0
  0
LINE
  5
16D
330
1F
100
AcDbEntity
  8
taglio
100
AcDbLine
 10
-441.6720249868604
 20
163.5973552493442
 30
0.0
 11
-441.6720249870036
 21
173.9099221074866
 31
0.0
  0
LINE
  5
16E
330
1F
100
AcDbEntity
  8
taglio
100
AcDbLine
 10
-441.6720249870036
 20
173.9099221074866
 30
0.0
 11
-448.8742541953452
 21
174.7641186723236
 31
0.0
  0
ARC
  5
16F
330
1F
100
AcDbEntity
  8
taglio
100
AcDbCircle
 10
-483.3543082881008
 20
168.753638678126
 30
0.0
 40
35.0
100
AcDbArc
 50
9.88830383461884
 51
35.11169616616365
  0
LINE
  5
170
330
1F
100
AcDbEntity
  8
taglio
100
AcDbLine
 10
-454.7231770616261
 20
188.8846675811002
 30
0.0
 11
-450.2344401324159
 21
194.5814208773413
 31
0.0
  0
LINE
  5
171
330
1F
100
AcDbEntity
  8
taglio
100
AcDbLine
 10
-450.2344401324159
 20
194.5814208773413
 30
0.0
 11
-457.5265260894196
 21
201.8735068340998
 31
0.0
  0
LINE
  5
172
330
1F
100
AcDbEntity
  8
taglio
100
AcDbLine
 10
-457.5265260894196
 20
201.8735068340998
 30
0.0
 11
-463.2232793855178
 21
197.3847699048759
 31
0.0
  0
ARC
  5
173
330
1F
100
AcDbEntity
  8
taglio
100
AcDbCircle
 10
-483.3543082881008
 20
168.753638678126
 30
0.0
 40
35.0
100
AcDbArc
 50
54.88830383461905
 51
80.11169616538183
  0
LINE
  5
174
330
1F
100
AcDbEntity
  8
taglio
100
AcDbLine
 10
-477.3438282939035
 20
203.2336927708817
 30
0.0
 11
-459.3725262498494
 21
203.2336927708817
 31
0.0
  0
LINE
  5
175
330
1F
100
AcDbEntity
  8
taglio
100
AcDbLine
 10
-459.3725262498494
 20
203.2336927708817
 30
0.0
 11
-373.3543082883336
 21
203.2336927708817
 31
0.0
  0
LINE
  5
176
330
1F
100
AcDbEntity
  8
taglio
100
AcDbLine
 10
-373.3543082883336
 20
203.2336927708817
 30
0.0
 11
-373.3543082883336
 21
213.2336927708817
 31
0.0
  0
LINE
  5
177
330
1F
100
AcDbEntity
  8
taglio
100
AcDbLine
 10
-373.3543082883336
 20
213.2336927708817
 30
0.0
 11
-373.3543082883336
 21
223.2336927708817
 31
0.0
  0
LINE
  5
178
330
1F
100
AcDbEntity
  8
taglio
100
AcDbLine
 10
-373.3543082883336
 20
223.2336927708817
 30
0.0
 11
-459.3725262498494
 21
223.2336927708817
 31
0.0
  0
LINE
  5
179
330
1F
100
AcDbEntity
  8
taglio
100
AcDbLine
 10
-459.3725262498494
 20
223.2336927708817
 30
0.0
 11
-477.3438282939035
 21
223.2336927708817
 31
0.0
  0
ARC
  5
17A
330
1F
100
AcDbEntity
  8
taglio
100
AcDbCircle
 10
-483.3543082881008
 20
257.7137468636373
 30
0.0
 40
35.0
100
AcDbArc
 50
279.8883038346181
 51
305.1116961653809
  0
LINE
  5
17B
330
1F
100
AcDbEntity
  8
taglio
100
AcDbLine
 10
-463.2232793855178
 20
229.0826156368875
 30
0.0
 11
-457.5265260894196
 21
224.5938787076636
 31
0.0
  0
LINE
  5
17C
330
1F
100
AcDbEntity
  8
taglio
100
AcDbLine
 10
-457.5265260894196
 20
224.5938787076636
 30
0.0
 11
-450.2344401324159
 21
231.885964664422
 31
0.0
  0
LINE
  5
17D
330
1F
100
AcDbEntity
  8
taglio
100
AcDbLine
 10
-450.2344401324159
 20
231.885964664422
 30
0.0
 11
-454.7231770616261
 21
237.5827179606632
 31
0.0
  0
ARC
  5
17E
330
1F
100
AcDbEntity
  8
taglio
100
AcDbCircle
 10
-483.3543082881008
 20
257.7137468636373
 30
0.0
 40
35.0
100
AcDbArc
 50
324.8883038338363
 51
350.1116961653811
  0
LINE
  5
17F
330
1F
100
AcDbEntity
  8
taglio
100
AcDbLine
 10
-448.8742541953452
 20
251.7032668694397
 30
0.0
 11
-441.6720249870036
 21
252.5574634342768
 31
0.0
  0
LINE
  5
180
330
1F
100
AcDbEntity
  8
taglio
100
AcDbLine
 10
-441.6720249870036
 20
252.5574634342768
 30
0.0
 11
-441.6720249868604
 21
262.8700302924192
 31
0.0
  0
LINE
  5
181
330
1F
100
AcDbEntity
  8
taglio
100
AcDbLine
 10
-441.6720249868604
 20
262.8700302924192
 30
0.0
 11
-448.8742541952631
 21
263.724226857364
 31
0.0
  0
ARC
  5
182
330
1F
100
AcDbEntity
  8
taglio
100
AcDbCircle
 10
-483.3543082881008
 20
257.7137468636373
 30
0.0
 40
35.0
100
AcDbArc
 50
9.88830383383616
 51
35.11169616538023
  0
LINE
  5
183
330
1F
100
AcDbEntity
  8
taglio
100
AcDbLine
 10
-454.723177061351
 20
277.8447757662204
 30
0.0
 11
-450.2344401318352
 21
283.5415290626883
 31
0.0
  0
LINE
  5
184
330
1F
100
AcDbEntity
  8
taglio
100
AcDbLine
 10
-450.2344401318352
 20
283.5415290626883
 30
0.0
 11
-457.5265260885969
 21
290.8336150195495
 31
0.0
  0
LINE
  5
185
330
1F
100
AcDbEntity
  8
taglio
100
AcDbLine
 10
-457.5265260885969
 20
290.8336150195495
 30
0.0
 11
-463.2232793851267
 21
286.3448780901121
 31
0.0
  0
ARC
  5
186
330
1F
100
AcDbEntity
  8
taglio
100
AcDbCircle
 10
-483.3543082881008
 20
257.7137468636373
 30
0.0
 40
35.0
100
AcDbArc
 50
54.88830383383632
 51
80.11169616538072
  0
LINE
  5
187
330
1F
100
AcDbEntity
  8
taglio
100
AcDbLine
 10
-477.3438282939032
 20
292.1938009563929
 30
0.0
 11
-478.1980248587489
 21
299.3960301648071
 31
0.0
  0
LINE
  5
188
330
1F
100
AcDbEntity
  8
taglio
100
AcDbLine
 10
-478.1980248587489
 20
299.3960301648071
 30
0.0
 11
-488.5105917168913
 21
299.3960301648047
 31
0.0
  0
LINE
  5
189
330
1F
100
AcDbEntity
  8
taglio
100
AcDbLine
 10
-488.5105917168913
 20
299.3960301648047
 30
0.0
 11
-489.3647882818277
 21
292.1938009564749
 31
0.0
  0
ARC
  5
18A
330
1F
100
AcDbEntity
  8
taglio
100
AcDbCircle
 10
-483.3543082881008
 20
257.7137468636373
 30
0.0
 40
35.0
100
AcDbArc
 50
99.88830383383645
 51
125.1116961653813
  0
LINE
  5
18B
330
1F
100
AcDbEntity
  8
taglio
100
AcDbLine
 10
-503.485337190684
 20
286.3448780903869
 30
0.0
 11
-509.1820904868632
 21
290.8336150196753
 31
0.0
  0
LINE
  5
18C
330
1F
100
AcDbEntity
  8
taglio
100
AcDbLine
 10
-509.1820904868632
 20
290.8336150196753
 30
0.0
 11
-516.4741764437215
 21
283.5415290627711
 31
0.0
  0
LINE
  5
18D
330
1F
100
AcDbEntity
  8
taglio
100
AcDbLine
 10
-516.4741764437215
 20
283.5415290627711
 30
0.0
 11
-511.9854395145753
 21
277.8447757666117
 31
0.0
  0
ARC
  5
18E
330
1F
100
AcDbEntity
  8
taglio
100
AcDbCircle
 10
-483.3543082881008
 20
257.7137468636373
 30
0.0
 40
35.0
100
AcDbArc
 50
144.8883038338358
 51
170.1116961653813
  0
LINE
  5
18F
330
1F
100
AcDbEntity
  8
taglio
100
AcDbLine
 10
-517.8343623808564
 20
263.7242268578349
 30
0.0
 11
-525.0365915886819
 21
262.870030293059
 31
0.0
  0
LINE
  5
190
330
1F
100
AcDbEntity
  8
taglio
100
AcDbLine
 10
-525.0365915886819
 20
262.870030293059
 30
0.0
 11
-525.0365915886797
 21
252.5574634347769
 31
0.0
  0
LINE
  5
191
330
1F
100
AcDbEntity
  8
taglio
100
AcDbLine
 10
-525.0365915886797
 20
252.5574634347769
 30
0.0
 11
-517.8343623809385
 21
251.7032668699105
 31
0.0
  0
ARC
  5
192
330
1F
100
AcDbEntity
  8
taglio
100
AcDbCircle
 10
-483.3543082881008
 20
257.7137468636373
 30
0.0
 40
35.0
100
AcDbArc
 50
189.8883038338362
 51
215.1116961653813
  0
LINE
  5
193
330
1F
100
AcDbEntity
  8
taglio
100
AcDbLine
 10
-511.9854395148504
 20
237.5827179610541
 30
0.0
 11
-516.4741764438471
 21
231.8859646652448
 31
0.0
  0
LINE
  5
194
330
1F
100
AcDbEntity
  8
taglio
100
AcDbLine
 10
-516.4741764438471
 20
231.8859646652448
 30
0.0
 11
-509.1820904869463
 21
224.593878708244
 31
0.0
  0
LINE
  5
195
330
1F
100
AcDbEntity
  8
taglio
100
AcDbLine
 10
-509.1820904869463
 20
224.593878708244
 30
0.0
 11
-503.4853371910751
 21
229.0826156371628
 31
0.0
  0
ARC
  5
196
330
1F
100
AcDbEntity
  8
taglio
100
AcDbCircle
 10
-483.3543082881008
 20
257.7137468636373
 30
0.0
 40
35.0
100
AcDbArc
 50
234.8883038338355
 51
260.1116961653815
  0
LINE
  5
197
330
1F
100
AcDbEntity
  8
taglio
100
AcDbLine
 10
-489.3647882822984
 20
223.2336927708817
 30
0.0
 11
-507.3360903257716
 21
223.2336927708817
 31
0.0
  0
LINE
  5
198
330
1F
100
AcDbEntity
  8
taglio
100
AcDbLine
 10
-507.3360903257716
 20
223.2336927708817
 30
0.0
 11
-593.3543082883336
 21
223.2336927708817
 31
0.0
  0
LINE
  5
199
330
1F
100
AcDbEntity
  8
taglio
100
AcDbLine
 10
-593.3543082883336
 20
223.2336927708817
 30
0.0
 11
-600.1387728288862
 21
221.8767998627712
 31
0.0
  0
ARC
  5
19A
330
1F
100
AcDbEntity
  8
taglio
100
AcDbCircle
 10
-599.3543082883336
 20
217.9544771600075
 30
0.0
 40
4.0
100
AcDbArc
 50
101.3099324740177
 51
180.0
  0
LINE
  5
19B
330
1F
100
AcDbEntity
  8
taglio
100
AcDbLine
 10
-603.3543082883336
 20
217.9544771600075
 30
0.0
 11
-603.3543082883336
 21
213.2336927708817
 31
0.0
  0
ENDSEC
  0
SECTION
  2
OBJECTS
  0
DICTIONARY
  5
C
330
0
100
AcDbDictionary
281
     1
  3
ACAD_GROUP
350
D
  3
ACAD_LAYOUT
350
1A
  3
ACAD_MATERIAL
350
3B
  3
ACAD_MLEADERSTYLE
350
1C3
  3
ACAD_MLINESTYLE
350
17
  3
ACAD_PLOTSETTINGS
350
19
  3
ACAD_PLOTSTYLENAME
350
E
  3
ACAD_TABLESTYLE
350
1C2
  3
ACAD_VISUALSTYLE
350
2A
  0
DICTIONARY
  5
D
102
{ACAD_REACTORS
330
C
102
}
330
C
100
AcDbDictionary
281
     1
  0
DICTIONARY
  5
1A
102
{ACAD_REACTORS
330
C
102
}
330
C
100
AcDbDictionary
281
     1
  3
Layout1
350
1E
  3
Layout2
350
26
  3
Model
350
22
  0
DICTIONARY
  5
3B
102
{ACAD_REACTORS
330
C
102
}
330
C
100
AcDbDictionary
281
     1
  3
ByBlock
350
3D
  3
ByLayer
350
3C
  3
Global
350
3E
  0
DICTIONARY
  5
1C3
102
{ACAD_REACTORS
330
C
102
}
330
C
100
AcDbDictionary
281
     1
  0
DICTIONARY
  5
17
102
{ACAD_REACTORS
330
C
102
}
330
C
100
AcDbDictionary
281
     1
  3
Standard
350
18
  0
DICTIONARY
  5
19
102
{ACAD_REACTORS
330
C
102
}
330
C
100
AcDbDictionary
281
     1
  0
ACDBDICTIONARYWDFLT
  5
E
102
{ACAD_REACTORS
330
C
102
}
330
C
100
AcDbDictionary
281
     1
  3
Normal
350
F
100
AcDbDictionaryWithDefault
340
F
  0
DICTIONARY
  5
1C2
102
{ACAD_REACTORS
330
C
102
}
330
C
100
AcDbDictionary
281
     1
  0
DICTIONARY
  5
2A
102
{ACAD_REACTORS
330
C
102
}
330
C
100
AcDbDictionary
281
     1
  3
2dWireframe
350
2F
  3
3D Hidden
350
31
  3
3dWireframe
350
30
  3
Basic
350
32
  3
Brighten
350
36
  3
ColorChange
350
3A
  3
Conceptual
350
34
  3
Dim
350
35
  3
Facepattern
350
39
  3
Flat
350
2B
  3
FlatWithEdges
350
2C
  3
Gouraud
350
2D
  3
GouraudWithEdges
350
2E
  3
Linepattern
350
38
  3
Realistic
350
33
  3
Thicken
350
37
  0
LAYOUT
  5
1E
102
{ACAD_REACTORS
330
1A
102
}
330
1A
100
AcDbPlotSettings
  1

  2
none_device
  4

  6

 40
0.0
 41
0.0
 42
0.0
 43
0.0
 44
0.0
 45
0.0
 46
0.0
 47
0.0
 48
0.0
 49
0.0
140
0.0
141
0.0
142
1.0
143
1.0
 70
   688
 72
     0
 73
     0
 74
     5
  7

 75
    16
 76
     0
 77
     2
 78
   300
147
1.0
148
0.0
149
0.0
100
AcDbLayout
  1
Layout1
 70
     1
 71
     1
 10
0.0
 20
0.0
 11
12.0
 21
9.0
 12
0.0
 22
0.0
 32
0.0
 14
1.000000000000000E+20
 24
1.000000000000000E+20
 34
1.000000000000000E+20
 15
-1.000000000000000E+20
 25
-1.000000000000000E+20
 35
-1.000000000000000E+20
146
0.0
 13
0.0
 23
0.0
 33
0.0
 16
1.0
 26
0.0
 36
0.0
 17
0.0
 27
1.0
 37
0.0
 76
     0
330
1B
  0
LAYOUT
  5
26
102
{ACAD_REACTORS
330
1A
102
}
330
1A
100
AcDbPlotSettings
  1

  2
none_device
  4

  6

 40
0.0
 41
0.0
 42
0.0
 43
0.0
 44
0.0
 45
0.0
 46
0.0
 47
0.0
 48
0.0
 49
0.0
140
0.0
141
0.0
142
1.0
143
1.0
 70
   688
 72
     0
 73
     0
 74
     5
  7

 75
    16
 76
     0
 77
     2
 78
   300
147
1.0
148
0.0
149
0.0
100
AcDbLayout
  1
Layout2
 70
     1
 71
     2
 10
0.0
 20
0.0
 11
0.0
 21
0.0
 12
0.0
 22
0.0
 32
0.0
 14
0.0
 24
0.0
 34
0.0
 15
0.0
 25
0.0
 35
0.0
146
0.0
 13
0.0
 23
0.0
 33
0.0
 16
1.0
 26
0.0
 36
0.0
 17
0.0
 27
1.0
 37
0.0
 76
     0
330
23
  0
LAYOUT
  5
22
102
{ACAD_REACTORS
330
1A
102
}
330
1A
100
AcDbPlotSettings
  1

  2
none_device
  4

  6

 40
0.0
 41
0.0
 42
0.0
 43
0.0
 44
0.0
 45
0.0
 46
0.0
 47
0.0
 48
0.0
 49
0.0
140
0.0
141
0.0
142
1.0
143
1.0
 70
  1712
 72
     0
 73
     0
 74
     0
  7

 75
     0
 76
     0
 77
     2
 78
   300
147
1.0
148
0.0
149
0.0
100
AcDbLayout
  1
Model
 70
     1
 71
     0
 10
0.0
 20
0.0
 11
12.0
 21
9.0
 12
0.0
 22
0.0
 32
0.0
 14
-603.3543082883336
 24
86.01006410421809
 34
-0.0000000000000266
 15
344.5664956046563
 25
366.0100641054672
 35
0.0000000000000067
146
0.0
 13
0.0
 23
0.0
 33
0.0
 16
1.0
 26
0.0
 36
0.0
 17
0.0
 27
1.0
 37
0.0
 76
     0
330
1F
331
29
  0
MATERIAL
  5
3D
102
{ACAD_REACTORS
330
3B
102
}
102
{ACAD_XDICTIONARY
360
1BE
102
}
330
3B
100
AcDbMaterial
  1
ByBlock
  0
MATERIAL
  5
3C
102
{ACAD_REACTORS
330
3B
102
}
102
{ACAD_XDICTIONARY
360
1BC
102
}
330
3B
100
AcDbMaterial
  1
ByLayer
  0
MATERIAL
  5
3E
102
{ACAD_REACTORS
330
3B
102
}
102
{ACAD_XDICTIONARY
360
1C0
102
}
330
3B
100
AcDbMaterial
  1
Global
  0
MLINESTYLE
  5
18
102
{ACAD_REACTORS
330
17
102
}
330
17
100
AcDbMlineStyle
  2
Standard
 70
     0
  3

 62
   256
 51
90.0
 52
90.0
 71
     2
 49
0.5
 62
   256
  6
BYLAYER
 49
-0.5
 62
   256
  6
BYLAYER
  0
ACDBPLACEHOLDER
  5
F
102
{ACAD_REACTORS
330
E
102
}
330
E
  0
VISUALSTYLE
  5
2F
102
{ACAD_REACTORS
330
2A
102
}
102
{ACAD_XDICTIONARY
360
1A4
102
}
330
2A
100
AcDbVisualStyle
  2
2dWireframe
 70
     4
 71
     0
 72
     2
 73
     0
 90
        0
 40
-0.6
 41
-30.0
 62
     5
 63
     7
421
 16777215
 74
     1
 91
        4
 64
     7
 65
   257
 75
     1
175
     1
 42
1.0
 92
        0
 66
   257
 43
1.0
 76
     1
 77
     6
 78
     2
 67
     7
 79
     5
170
     0
171
     0
290
     0
174
     0
 93
        1
 44
0.0
173
     0
291
     0
 45
0.0
1001
ACAD
1000
AcDbSavedByObjectVersion
1070
     0
  0
VISUALSTYLE
  5
31
102
{ACAD_REACTORS
330
2A
102
}
102
{ACAD_XDICTIONARY
360
1A8
102
}
330
2A
100
AcDbVisualStyle
  2
3D Hidden
 70
     6
 71
     1
 72
     2
 73
     2
 90
        0
 40
-0.6
 41
-30.0
 62
     5
 63
     7
421
 16777215
 74
     2
 91
        2
 64
     7
 65
   257
 75
     2
175
     1
 42
40.0
 92
        0
 66
   257
 43
1.0
 76
     1
 77
     6
 78
     2
 67
     7
 79
     3
170
     0
171
     0
290
     0
174
     0
 93
        1
 44
0.0
173
     0
291
     0
 45
0.0
1001
ACAD
1000
AcDbSavedByObjectVersion
1070
     0
  0
VISUALSTYLE
  5
30
102
{ACAD_REACTORS
330
2A
102
}
102
{ACAD_XDICTIONARY
360
1A6
102
}
330
2A
100
AcDbVisualStyle
  2
3dWireframe
 70
     5
 71
     0
 72
     2
 73
     0
 90
        0
 40
-0.6
 41
-30.0
 62
     5
 63
     7
421
 16777215
 74
     1
 91
        4
 64
     7
 65
   257
 75
     1
175
     1
 42
1.0
 92
        0
 66
   257
 43
1.0
 76
     1
 77
     6
 78
     2
 67
     7
 79
     5
170
     0
171
     0
290
     0
174
     0
 93
        1
 44
0.0
173
     0
291
     0
 45
0.0
1001
ACAD
1000
AcDbSavedByObjectVersion
1070
     0
  0
VISUALSTYLE
  5
32
102
{ACAD_REACTORS
330
2A
102
}
102
{ACAD_XDICTIONARY
360
1AA
102
}
330
2A
100
AcDbVisualStyle
  2
Basic
 70
     7
 71
     1
 72
     0
 73
     1
 90
        0
 40
-0.6
 41
-30.0
 62
     5
 63
     7
421
 16777215
 74
     0
 91
        4
 64
     7
 65
   257
 75
     1
175
     1
 42
1.0
 92
        8
 66
     7
 43
1.0
 76
     1
 77
     6
 78
     2
 67
     7
 79
     5
170
     0
171
     0
290
     0
174
     0
 93
        1
 44
0.0
173
     0
291
     1
 45
0.0
1001
ACAD
1000
AcDbSavedByObjectVersion
1070
     0
  0
VISUALSTYLE
  5
36
102
{ACAD_REACTORS
330
2A
102
}
102
{ACAD_XDICTIONARY
360
1B2
102
}
330
2A
100
AcDbVisualStyle
  2
Brighten
 70
    12
 71
     2
 72
     2
 73
     0
 90
        0
 40
-0.6
 41
-30.0
 62
     5
 63
     7
421
 16777215
 74
     1
 91
        4
 64
     7
 65
   257
 75
     1
175
     1
 42
1.0
 92
        8
 66
     7
 43
1.0
 76
     1
 77
     6
 78
     2
 67
     7
 79
     5
170
     0
171
     0
290
     0
174
     0
 93
        1
 44
50.0
173
     0
291
     1
 45
0.0
1001
ACAD
1000
AcDbSavedByObjectVersion
1070
     0
  0
VISUALSTYLE
  5
3A
102
{ACAD_REACTORS
330
2A
102
}
102
{ACAD_XDICTIONARY
360
1BA
102
}
330
2A
100
AcDbVisualStyle
  2
ColorChange
 70
    16
 71
     2
 72
     2
 73
     3
 90
        0
 40
-0.6
 41
-30.0
 62
     5
 63
     8
421
  8421504
 74
     1
 91
        4
 64
     7
 65
   257
 75
     1
175
     1
 42
1.0
 92
        8
 66
     8
424
  8421504
 43
1.0
 76
     1
 77
     6
 78
     2
 67
     7
 79
     5
170
     0
171
     0
290
     0
174
     0
 93
        1
 44
0.0
173
     0
291
     1
 45
0.0
1001
ACAD
1000
AcDbSavedByObjectVersion
1070
     0
  0
VISUALSTYLE
  5
34
102
{ACAD_REACTORS
330
2A
102
}
102
{ACAD_XDICTIONARY
360
1AE
102
}
330
2A
100
AcDbVisualStyle
  2
Conceptual
 70
     9
 71
     3
 72
     2
 73
     0
 90
        0
 40
-0.6
 41
-30.0
 62
     5
 63
     7
421
 16777215
 74
     2
 91
        2
 64
     7
 65
   257
 75
     1
175
     1
 42
40.0
 92
        8
 66
     7
 43
1.0
 76
     1
 77
     6
 78
     2
 67
     7
 79
     3
170
     0
171
     0
290
     0
174
     0
 93
        1
 44
0.0
173
     0
291
     0
 45
0.0
1001
ACAD
1000
AcDbSavedByObjectVersion
1070
     0
  0
VISUALSTYLE
  5
35
102
{ACAD_REACTORS
330
2A
102
}
102
{ACAD_XDICTIONARY
360
1B0
102
}
330
2A
100
AcDbVisualStyle
  2
Dim
 70
    11
 71
     2
 72
     2
 73
     0
 90
        0
 40
-0.6
 41
-30.0
 62
     5
 63
     7
421
 16777215
 74
     1
 91
        4
 64
     7
 65
   257
 75
     1
175
     1
 42
1.0
 92
        8
 66
     7
 43
1.0
 76
     1
 77
     6
 78
     2
 67
     7
 79
     5
170
     0
171
     0
290
     0
174
     0
 93
        1
 44
-50.0
173
     0
291
     1
 45
0.0
1001
ACAD
1000
AcDbSavedByObjectVersion
1070
     0
  0
VISUALSTYLE
  5
39
102
{ACAD_REACTORS
330
2A
102
}
102
{ACAD_XDICTIONARY
360
1B8
102
}
330
2A
100
AcDbVisualStyle
  2
Facepattern
 70
    15
 71
     2
 72
     2
 73
     0
 90
        0
 40
-0.6
 41
-30.0
 62
     5
 63
     7
421
 16777215
 74
     1
 91
        4
 64
     7
 65
   257
 75
     1
175
     1
 42
1.0
 92
        8
 66
     7
 43
1.0
 76
     1
 77
     6
 78
     2
 67
     7
 79
     5
170
     0
171
     0
290
     0
174
     0
 93
        1
 44
0.0
173
     0
291
     1
 45
0.0
1001
ACAD
1000
AcDbSavedByObjectVersion
1070
     0
  0
VISUALSTYLE
  5
2B
102
{ACAD_REACTORS
330
2A
102
}
102
{ACAD_XDICTIONARY
360
19C
102
}
330
2A
100
AcDbVisualStyle
  2
Flat
 70
     0
 71
     2
 72
     1
 73
     1
 90
        2
 40
-0.6
 41
30.0
 62
     5
 63
     7
421
 16777215
 74
     0
 91
        4
 64
     7
 65
   257
 75
     1
175
     1
 42
1.0
 92
        8
 66
     7
 43
1.0
 76
     1
 77
     6
 78
     2
 67
     7
 79
     5
170
     0
171
     0
290
     0
174
     0
 93
       13
 44
0.0
173
     0
291
     1
 45
0.0
1001
ACAD
1000
AcDbSavedByObjectVersion
1070
     0
  0
VISUALSTYLE
  5
2C
102
{ACAD_REACTORS
330
2A
102
}
102
{ACAD_XDICTIONARY
360
19E
102
}
330
2A
100
AcDbVisualStyle
  2
FlatWithEdges
 70
     1
 71
     2
 72
     1
 73
     1
 90
        2
 40
-0.6
 41
30.0
 62
     5
 63
     7
421
 16777215
 74
     1
 91
        4
 64
     7
 65
   257
 75
     1
175
     1
 42
1.0
 92
        0
 66
   257
 43
1.0
 76
     1
 77
     6
 78
     2
 67
     7
 79
     5
170
     0
171
     0
290
     0
174
     0
 93
       13
 44
0.0
173
     0
291
     1
 45
0.0
1001
ACAD
1000
AcDbSavedByObjectVersion
1070
     0
  0
VISUALSTYLE
  5
2D
102
{ACAD_REACTORS
330
2A
102
}
102
{ACAD_XDICTIONARY
360
1A0
102
}
330
2A
100
AcDbVisualStyle
  2
Gouraud
 70
     2
 71
     2
 72
     2
 73
     1
 90
        2
 40
-0.6
 41
30.0
 62
     5
 63
     7
421
 16777215
 74
     0
 91
        4
 64
     7
 65
   257
 75
     1
175
     1
 42
1.0
 92
        0
 66
     7
 43
1.0
 76
     1
 77
     6
 78
     2
 67
     7
 79
     5
170
     0
171
     0
290
     0
174
     0
 93
       13
 44
0.0
173
     0
291
     1
 45
0.0
1001
ACAD
1000
AcDbSavedByObjectVersion
1070
     0
  0
VISUALSTYLE
  5
2E
102
{ACAD_REACTORS
330
2A
102
}
102
{ACAD_XDICTIONARY
360
1A2
102
}
330
2A
100
AcDbVisualStyle
  2
GouraudWithEdges
 70
     3
 71
     2
 72
     2
 73
     1
 90
        2
 40
-0.6
 41
30.0
 62
     5
 63
     7
421
 16777215
 74
     1
 91
        4
 64
     7
 65
   257
 75
     1
175
     1
 42
1.0
 92
        0
 66
   257
 43
1.0
 76
     1
 77
     6
 78
     2
 67
     7
 79
     5
170
     0
171
     0
290
     0
174
     0
 93
       13
 44
0.0
173
     0
291
     1
 45
0.0
1001
ACAD
1000
AcDbSavedByObjectVersion
1070
     0
  0
VISUALSTYLE
  5
38
102
{ACAD_REACTORS
330
2A
102
}
102
{ACAD_XDICTIONARY
360
1B6
102
}
330
2A
100
AcDbVisualStyle
  2
Linepattern
 70
    14
 71
     2
 72
     2
 73
     0
 90
        0
 40
-0.6
 41
-30.0
 62
     5
 63
     7
421
 16777215
 74
     1
 91
        4
 64
     7
 65
   257
 75
     7
175
     7
 42
1.0
 92
        8
 66
     7
 43
1.0
 76
     1
 77
     6
 78
     2
 67
     7
 79
     5
170
     0
171
     0
290
     0
174
     0
 93
        1
 44
0.0
173
     0
291
     1
 45
0.0
1001
ACAD
1000
AcDbSavedByObjectVersion
1070
     0
  0
VISUALSTYLE
  5
33
102
{ACAD_REACTORS
330
2A
102
}
102
{ACAD_XDICTIONARY
360
1AC
102
}
330
2A
100
AcDbVisualStyle
  2
Realistic
 70
     8
 71
     2
 72
     2
 73
     0
 90
        0
 40
-0.6
 41
-30.0
 62
     5
 63
     7
421
 16777215
 74
     1
 91
        0
 64
     7
 65
   257
 75
     1
175
     1
 42
1.0
 92
        8
 66
     8
424
  7895160
 43
1.0
 76
     1
 77
     6
 78
     2
 67
     7
 79
     5
170
     0
171
     0
290
     0
174
     0
 93
       13
 44
0.0
173
     0
291
     0
 45
0.0
1001
ACAD
1000
AcDbSavedByObjectVersion
1070
     0
  0
VISUALSTYLE
  5
37
102
{ACAD_REACTORS
330
2A
102
}
102
{ACAD_XDICTIONARY
360
1B4
102
}
330
2A
100
AcDbVisualStyle
  2
Thicken
 70
    13
 71
     2
 72
     2
 73
     0
 90
        0
 40
-0.6
 41
-30.0
 62
     5
 63
     7
421
 16777215
 74
     1
 91
        4
 64
     7
 65
   257
 75
     1
175
     1
 42
1.0
 92
       12
 66
     7
 43
1.0
 76
     1
 77
     6
 78
     2
 67
     7
 79
     5
170
     0
171
     0
290
     0
174
     0
 93
        1
 44
0.0
173
     0
291
     1
 45
0.0
1001
ACAD
1000
AcDbSavedByObjectVersion
1070
     0
  0
DICTIONARY
  5
1BE
330
3D
100
AcDbDictionary
280
     1
281
     1
  3
ACAD_XREC_ROUNDTRIP
360
1BF
  0
DICTIONARY
  5
1BC
330
3C
100
AcDbDictionary
280
     1
281
     1
  3
ACAD_XREC_ROUNDTRIP
360
1BD
  0
DICTIONARY
  5
1C0
330
3E
100
AcDbDictionary
280
     1
281
     1
  3
ACAD_XREC_ROUNDTRIP
360
1C1
  0
DICTIONARY
  5
1A4
330
2F
100
AcDbDictionary
280
     1
281
     1
  3
ACAD_XREC_ROUNDTRIP
360
1A5
  0
DICTIONARY
  5
1A8
330
31
100
AcDbDictionary
280
     1
281
     1
  3
ACAD_XREC_ROUNDTRIP
360
1A9
  0
DICTIONARY
  5
1A6
330
30
100
AcDbDictionary
280
     1
281
     1
  3
ACAD_XREC_ROUNDTRIP
360
1A7
  0
DICTIONARY
  5
1AA
330
32
100
AcDbDictionary
280
     1
281
     1
  3
ACAD_XREC_ROUNDTRIP
360
1AB
  0
DICTIONARY
  5
1B2
330
36
100
AcDbDictionary
280
     1
281
     1
  3
ACAD_XREC_ROUNDTRIP
360
1B3
  0
DICTIONARY
  5
1BA
330
3A
100
AcDbDictionary
280
     1
281
     1
  3
ACAD_XREC_ROUNDTRIP
360
1BB
  0
DICTIONARY
  5
1AE
330
34
100
AcDbDictionary
280
     1
281
     1
  3
ACAD_XREC_ROUNDTRIP
360
1AF
  0
DICTIONARY
  5
1B0
330
35
100
AcDbDictionary
280
     1
281
     1
  3
ACAD_XREC_ROUNDTRIP
360
1B1
  0
DICTIONARY
  5
1B8
330
39
100
AcDbDictionary
280
     1
281
     1
  3
ACAD_XREC_ROUNDTRIP
360
1B9
  0
DICTIONARY
  5
19C
330
2B
100
AcDbDictionary
280
     1
281
     1
  3
ACAD_XREC_ROUNDTRIP
360
19D
  0
DICTIONARY
  5
19E
330
2C
100
AcDbDictionary
280
     1
281
     1
  3
ACAD_XREC_ROUNDTRIP
360
19F
  0
DICTIONARY
  5
1A0
330
2D
100
AcDbDictionary
280
     1
281
     1
  3
ACAD_XREC_ROUNDTRIP
360
1A1
  0
DICTIONARY
  5
1A2
330
2E
100
AcDbDictionary
280
     1
281
     1
  3
ACAD_XREC_ROUNDTRIP
360
1A3
  0
DICTIONARY
  5
1B6
330
38
100
AcDbDictionary
280
     1
281
     1
  3
ACAD_XREC_ROUNDTRIP
360
1B7
  0
DICTIONARY
  5
1AC
330
33
100
AcDbDictionary
280
     1
281
     1
  3
ACAD_XREC_ROUNDTRIP
360
1AD
  0
DICTIONARY
  5
1B4
330
37
100
AcDbDictionary
280
     1
281
     1
  3
ACAD_XREC_ROUNDTRIP
360
1B5
  0
XRECORD
  5
1BF
102
{ACAD_REACTORS
330
1BE
102
}
330
1BE
100
AcDbXrecord
280
     1
102
MATERIAL
148
0.0
149
0.0
149
0.0
 93
        0
 94
      127
282
     0
 72
     1
 77
     1
171
     1
175
     1
179
     1
273
     0
  0
XRECORD
  5
1BD
102
{ACAD_REACTORS
330
1BC
102
}
330
1BC
100
AcDbXrecord
280
     1
102
MATERIAL
148
0.0
149
0.0
149
0.0
 93
        0
 94
      127
282
     0
 72
     1
 77
     1
171
     1
175
     1
179
     1
273
     0
  0
XRECORD
  5
1C1
102
{ACAD_REACTORS
330
1C0
102
}
330
1C0
100
AcDbXrecord
280
     1
102
MATERIAL
148
0.0
149
0.0
149
0.0
 93
        0
 94
      127
282
     0
 72
     1
 77
     1
171
     1
175
     1
179
     1
273
     0
  0
XRECORD
  5
1A5
102
{ACAD_REACTORS
330
1A4
102
}
330
1A4
100
AcDbXrecord
280
     1
102
RTVSPropertyOp0
 70
     1
102
RTVSPropertyOp1
 70
     1
102
RTVSPropertyOp2
 70
     1
102
RTVSPropertyOp3
 70
     1
102
RTVSPropertyOp4
 70
     1
102
RTVSPropertyOp5
 70
     1
102
RTVSPropertyOp6
 70
     1
102
RTVSPropertyOp7
 70
     1
102
RTVSPropertyOp8
 70
     1
102
RTVSPropertyOp9
 70
     1
102
RTVSPropertyOp10
 70
     1
102
RTVSPropertyOp11
 70
     1
102
RTVSPropertyOp12
 70
     1
102
RTVSPropertyOp13
 70
     1
102
RTVSPropertyOp14
 70
     1
102
RTVSPropertyOp15
 70
     1
102
RTVSPropertyOp16
 70
     1
102
RTVSPropertyOp17
 70
     1
102
RTVSPropertyOp18
 70
     1
102
RTVSPropertyOp19
 70
     1
102
RTVSPropertyOp20
 70
     1
102
RTVSPropertyOp21
 70
     1
102
RTVSPropertyOp22
 70
     1
102
RTVSPropertyOp23
 70
     1
102
RTVSPropertyOp24
 70
     1
102
RTVSPropertyOp25
 70
     1
102
RTVSPropertyOp26
 70
     1
102
RTVSPropertyOp27
 70
     1
102
RTVSPropertyOp28
 70
     1
102
RTVSPropertyOp29
 70
     1
102
RTVSPropertyOp30
 70
     1
102
RTVSPropertyOp31
 70
     1
102
RTVSPropertyOp32
 70
     1
  0
XRECORD
  5
1A9
102
{ACAD_REACTORS
330
1A8
102
}
330
1A8
100
AcDbXrecord
280
     1
102
RTVSPropertyOp0
 70
     1
102
RTVSPropertyOp1
 70
     1
102
RTVSPropertyOp2
 70
     1
102
RTVSPropertyOp3
 70
     1
102
RTVSPropertyOp4
 70
     1
102
RTVSPropertyOp5
 70
     1
102
RTVSPropertyOp6
 70
     1
102
RTVSPropertyOp7
 70
     1
102
RTVSPropertyOp8
 70
     1
102
RTVSPropertyOp9
 70
     1
102
RTVSPropertyOp10
 70
     1
102
RTVSPropertyOp11
 70
     1
102
RTVSPropertyOp12
 70
     1
102
RTVSPropertyOp13
 70
     1
102
RTVSPropertyOp14
 70
     1
102
RTVSPropertyOp15
 70
     1
102
RTVSPropertyOp16
 70
     1
102
RTVSPropertyOp17
 70
     1
102
RTVSPropertyOp18
 70
     1
102
RTVSPropertyOp19
 70
     1
102
RTVSPropertyOp20
 70
     1
102
RTVSPropertyOp21
 70
     1
102
RTVSPropertyOp22
 70
     1
102
RTVSPropertyOp23
 70
     1
102
RTVSPropertyOp24
 70
     1
102
RTVSPropertyOp25
 70
     1
102
RTVSPropertyOp26
 70
     1
102
RTVSPropertyOp27
 70
     1
102
RTVSPropertyOp28
 70
     1
102
RTVSPropertyOp29
 70
     1
102
RTVSPropertyOp30
 70
     1
102
RTVSPropertyOp31
 70
     1
102
RTVSPropertyOp32
 70
     1
  0
XRECORD
  5
1A7
102
{ACAD_REACTORS
330
1A6
102
}
330
1A6
100
AcDbXrecord
280
     1
102
RTVSPropertyOp0
 70
     1
102
RTVSPropertyOp1
 70
     1
102
RTVSPropertyOp2
 70
     1
102
RTVSPropertyOp3
 70
     1
102
RTVSPropertyOp4
 70
     1
102
RTVSPropertyOp5
 70
     1
102
RTVSPropertyOp6
 70
     1
102
RTVSPropertyOp7
 70
     1
102
RTVSPropertyOp8
 70
     1
102
RTVSPropertyOp9
 70
     1
102
RTVSPropertyOp10
 70
     1
102
RTVSPropertyOp11
 70
     1
102
RTVSPropertyOp12
 70
     1
102
RTVSPropertyOp13
 70
     1
102
RTVSPropertyOp14
 70
     1
102
RTVSPropertyOp15
 70
     1
102
RTVSPropertyOp16
 70
     1
102
RTVSPropertyOp17
 70
     1
102
RTVSPropertyOp18
 70
     1
102
RTVSPropertyOp19
 70
     1
102
RTVSPropertyOp20
 70
     1
102
RTVSPropertyOp21
 70
     1
102
RTVSPropertyOp22
 70
     1
102
RTVSPropertyOp23
 70
     1
102
RTVSPropertyOp24
 70
     1
102
RTVSPropertyOp25
 70
     1
102
RTVSPropertyOp26
 70
     1
102
RTVSPropertyOp27
 70
     1
102
RTVSPropertyOp28
 70
     1
102
RTVSPropertyOp29
 70
     1
102
RTVSPropertyOp30
 70
     1
102
RTVSPropertyOp31
 70
     1
102
RTVSPropertyOp32
 70
     1
  0
XRECORD
  5
1AB
102
{ACAD_REACTORS
330
1AA
102
}
330
1AA
100
AcDbXrecord
280
     1
102
RTVSPropertyOp0
 70
     1
102
RTVSPropertyOp1
 70
     1
102
RTVSPropertyOp2
 70
     1
102
RTVSPropertyOp3
 70
     1
102
RTVSPropertyOp4
 70
     1
102
RTVSPropertyOp5
 70
     1
102
RTVSPropertyOp6
 70
     1
102
RTVSPropertyOp7
 70
     1
102
RTVSPropertyOp8
 70
     1
102
RTVSPropertyOp9
 70
     1
102
RTVSPropertyOp10
 70
     1
102
RTVSPropertyOp11
 70
     1
102
RTVSPropertyOp12
 70
     1
102
RTVSPropertyOp13
 70
     1
102
RTVSPropertyOp14
 70
     1
102
RTVSPropertyOp15
 70
     1
102
RTVSPropertyOp16
 70
     1
102
RTVSPropertyOp17
 70
     1
102
RTVSPropertyOp18
 70
     1
102
RTVSPropertyOp19
 70
     1
102
RTVSPropertyOp20
 70
     1
102
RTVSPropertyOp21
 70
     1
102
RTVSPropertyOp22
 70
     1
102
RTVSPropertyOp23
 70
     1
102
RTVSPropertyOp24
 70
     1
102
RTVSPropertyOp25
 70
     1
102
RTVSPropertyOp26
 70
     1
102
RTVSPropertyOp27
 70
     1
102
RTVSPropertyOp28
 70
     1
102
RTVSPropertyOp29
 70
     1
102
RTVSPropertyOp30
 70
     1
102
RTVSPropertyOp31
 70
     1
102
RTVSPropertyOp32
 70
     1
  0
XRECORD
  5
1B3
102
{ACAD_REACTORS
330
1B2
102
}
330
1B2
100
AcDbXrecord
280
     1
102
RTVSPropertyOp0
 70
     1
102
RTVSPropertyOp1
 70
     1
102
RTVSPropertyOp2
 70
     1
102
RTVSPropertyOp3
 70
     1
102
RTVSPropertyOp4
 70
     1
102
RTVSPropertyOp5
 70
     1
102
RTVSPropertyOp6
 70
     1
102
RTVSPropertyOp7
 70
     1
102
RTVSPropertyOp8
 70
     1
102
RTVSPropertyOp9
 70
     1
102
RTVSPropertyOp10
 70
     1
102
RTVSPropertyOp11
 70
     1
102
RTVSPropertyOp12
 70
     1
102
RTVSPropertyOp13
 70
     1
102
RTVSPropertyOp14
 70
     1
102
RTVSPropertyOp15
 70
     1
102
RTVSPropertyOp16
 70
     1
102
RTVSPropertyOp17
 70
     1
102
RTVSPropertyOp18
 70
     1
102
RTVSPropertyOp19
 70
     1
102
RTVSPropertyOp20
 70
     1
102
RTVSPropertyOp21
 70
     1
102
RTVSPropertyOp22
 70
     1
102
RTVSPropertyOp23
 70
     1
102
RTVSPropertyOp24
 70
     1
102
RTVSPropertyOp25
 70
     1
102
RTVSPropertyOp26
 70
     1
102
RTVSPropertyOp27
 70
     1
102
RTVSPropertyOp28
 70
     1
102
RTVSPropertyOp29
 70
     1
102
RTVSPropertyOp30
 70
     1
102
RTVSPropertyOp31
 70
     1
102
RTVSPropertyOp32
 70
     1
  0
XRECORD
  5
1BB
102
{ACAD_REACTORS
330
1BA
102
}
330
1BA
100
AcDbXrecord
280
     1
102
RTVSPropertyOp0
 70
     1
102
RTVSPropertyOp1
 70
     1
102
RTVSPropertyOp2
 70
     1
102
RTVSPropertyOp3
 70
     1
102
RTVSPropertyOp4
 70
     1
102
RTVSPropertyOp5
 70
     1
102
RTVSPropertyOp6
 70
     1
102
RTVSPropertyOp7
 70
     1
102
RTVSPropertyOp8
 70
     1
102
RTVSPropertyOp9
 70
     1
102
RTVSPropertyOp10
 70
     1
102
RTVSPropertyOp11
 70
     1
102
RTVSPropertyOp12
 70
     1
102
RTVSPropertyOp13
 70
     1
102
RTVSPropertyOp14
 70
     1
102
RTVSPropertyOp15
 70
     1
102
RTVSPropertyOp16
 70
     1
102
RTVSPropertyOp17
 70
     1
102
RTVSPropertyOp18
 70
     1
102
RTVSPropertyOp19
 70
     1
102
RTVSPropertyOp20
 70
     1
102
RTVSPropertyOp21
 70
     1
102
RTVSPropertyOp22
 70
     1
102
RTVSPropertyOp23
 70
     1
102
RTVSPropertyOp24
 70
     1
102
RTVSPropertyOp25
 70
     1
102
RTVSPropertyOp26
 70
     1
102
RTVSPropertyOp27
 70
     1
102
RTVSPropertyOp28
 70
     1
102
RTVSPropertyOp29
 70
     1
102
RTVSPropertyOp30
 70
     1
102
RTVSPropertyOp31
 70
     1
102
RTVSPropertyOp32
 70
     1
  0
XRECORD
  5
1AF
102
{ACAD_REACTORS
330
1AE
102
}
330
1AE
100
AcDbXrecord
280
     1
102
RTVSPropertyOp0
 70
     1
102
RTVSPropertyOp1
 70
     1
102
RTVSPropertyOp2
 70
     1
102
RTVSPropertyOp3
 70
     1
102
RTVSPropertyOp4
 70
     1
102
RTVSPropertyOp5
 70
     1
102
RTVSPropertyOp6
 70
     1
102
RTVSPropertyOp7
 70
     1
102
RTVSPropertyOp8
 70
     1
102
RTVSPropertyOp9
 70
     1
102
RTVSPropertyOp10
 70
     1
102
RTVSPropertyOp11
 70
     1
102
RTVSPropertyOp12
 70
     1
102
RTVSPropertyOp13
 70
     1
102
RTVSPropertyOp14
 70
     1
102
RTVSPropertyOp15
 70
     1
102
RTVSPropertyOp16
 70
     1
102
RTVSPropertyOp17
 70
     1
102
RTVSPropertyOp18
 70
     1
102
RTVSPropertyOp19
 70
     1
102
RTVSPropertyOp20
 70
     1
102
RTVSPropertyOp21
 70
     1
102
RTVSPropertyOp22
 70
     1
102
RTVSPropertyOp23
 70
     1
102
RTVSPropertyOp24
 70
     1
102
RTVSPropertyOp25
 70
     1
102
RTVSPropertyOp26
 70
     1
102
RTVSPropertyOp27
 70
     1
102
RTVSPropertyOp28
 70
     1
102
RTVSPropertyOp29
 70
     1
102
RTVSPropertyOp30
 70
     1
102
RTVSPropertyOp31
 70
     1
102
RTVSPropertyOp32
 70
     1
  0
XRECORD
  5
1B1
102
{ACAD_REACTORS
330
1B0
102
}
330
1B0
100
AcDbXrecord
280
     1
102
RTVSPropertyOp0
 70
     1
102
RTVSPropertyOp1
 70
     1
102
RTVSPropertyOp2
 70
     1
102
RTVSPropertyOp3
 70
     1
102
RTVSPropertyOp4
 70
     1
102
RTVSPropertyOp5
 70
     1
102
RTVSPropertyOp6
 70
     1
102
RTVSPropertyOp7
 70
     1
102
RTVSPropertyOp8
 70
     1
102
RTVSPropertyOp9
 70
     1
102
RTVSPropertyOp10
 70
     1
102
RTVSPropertyOp11
 70
     1
102
RTVSPropertyOp12
 70
     1
102
RTVSPropertyOp13
 70
     1
102
RTVSPropertyOp14
 70
     1
102
RTVSPropertyOp15
 70
     1
102
RTVSPropertyOp16
 70
     1
102
RTVSPropertyOp17
 70
     1
102
RTVSPropertyOp18
 70
     1
102
RTVSPropertyOp19
 70
     1
102
RTVSPropertyOp20
 70
     1
102
RTVSPropertyOp21
 70
     1
102
RTVSPropertyOp22
 70
     1
102
RTVSPropertyOp23
 70
     1
102
RTVSPropertyOp24
 70
     1
102
RTVSPropertyOp25
 70
     1
102
RTVSPropertyOp26
 70
     1
102
RTVSPropertyOp27
 70
     1
102
RTVSPropertyOp28
 70
     1
102
RTVSPropertyOp29
 70
     1
102
RTVSPropertyOp30
 70
     1
102
RTVSPropertyOp31
 70
     1
102
RTVSPropertyOp32
 70
     1
  0
XRECORD
  5
1B9
102
{ACAD_REACTORS
330
1B8
102
}
330
1B8
100
AcDbXrecord
280
     1
102
RTVSPropertyOp0
 70
     1
102
RTVSPropertyOp1
 70
     1
102
RTVSPropertyOp2
 70
     1
102
RTVSPropertyOp3
 70
     1
102
RTVSPropertyOp4
 70
     1
102
RTVSPropertyOp5
 70
     1
102
RTVSPropertyOp6
 70
     1
102
RTVSPropertyOp7
 70
     1
102
RTVSPropertyOp8
 70
     1
102
RTVSPropertyOp9
 70
     1
102
RTVSPropertyOp10
 70
     1
102
RTVSPropertyOp11
 70
     1
102
RTVSPropertyOp12
 70
     1
102
RTVSPropertyOp13
 70
     1
102
RTVSPropertyOp14
 70
     1
102
RTVSPropertyOp15
 70
     1
102
RTVSPropertyOp16
 70
     1
102
RTVSPropertyOp17
 70
     1
102
RTVSPropertyOp18
 70
     1
102
RTVSPropertyOp19
 70
     1
102
RTVSPropertyOp20
 70
     1
102
RTVSPropertyOp21
 70
     1
102
RTVSPropertyOp22
 70
     1
102
RTVSPropertyOp23
 70
     1
102
RTVSPropertyOp24
 70
     1
102
RTVSPropertyOp25
 70
     1
102
RTVSPropertyOp26
 70
     1
102
RTVSPropertyOp27
 70
     1
102
RTVSPropertyOp28
 70
     1
102
RTVSPropertyOp29
 70
     1
102
RTVSPropertyOp30
 70
     1
102
RTVSPropertyOp31
 70
     1
102
RTVSPropertyOp32
 70
     1
  0
XRECORD
  5
19D
102
{ACAD_REACTORS
330
19C
102
}
330
19C
100
AcDbXrecord
280
     1
102
RTVSPropertyOp0
 70
     1
102
RTVSPropertyOp1
 70
     1
102
RTVSPropertyOp2
 70
     1
102
RTVSPropertyOp3
 70
     1
102
RTVSPropertyOp4
 70
     1
102
RTVSPropertyOp5
 70
     1
102
RTVSPropertyOp6
 70
     1
102
RTVSPropertyOp7
 70
     1
102
RTVSPropertyOp8
 70
     1
102
RTVSPropertyOp9
 70
     1
102
RTVSPropertyOp10
 70
     1
102
RTVSPropertyOp11
 70
     1
102
RTVSPropertyOp12
 70
     1
102
RTVSPropertyOp13
 70
     1
102
RTVSPropertyOp14
 70
     1
102
RTVSPropertyOp15
 70
     1
102
RTVSPropertyOp16
 70
     1
102
RTVSPropertyOp17
 70
     1
102
RTVSPropertyOp18
 70
     1
102
RTVSPropertyOp19
 70
     1
102
RTVSPropertyOp20
 70
     1
102
RTVSPropertyOp21
 70
     1
102
RTVSPropertyOp22
 70
     1
102
RTVSPropertyOp23
 70
     1
102
RTVSPropertyOp24
 70
     1
102
RTVSPropertyOp25
 70
     1
102
RTVSPropertyOp26
 70
     1
102
RTVSPropertyOp27
 70
     1
102
RTVSPropertyOp28
 70
     1
102
RTVSPropertyOp29
 70
     1
102
RTVSPropertyOp30
 70
     1
102
RTVSPropertyOp31
 70
     1
102
RTVSPropertyOp32
 70
     1
  0
XRECORD
  5
19F
102
{ACAD_REACTORS
330
19E
102
}
330
19E
100
AcDbXrecord
280
     1
102
RTVSPropertyOp0
 70
     1
102
RTVSPropertyOp1
 70
     1
102
RTVSPropertyOp2
 70
     1
102
RTVSPropertyOp3
 70
     1
102
RTVSPropertyOp4
 70
     1
102
RTVSPropertyOp5
 70
     1
102
RTVSPropertyOp6
 70
     1
102
RTVSPropertyOp7
 70
     1
102
RTVSPropertyOp8
 70
     1
102
RTVSPropertyOp9
 70
     1
102
RTVSPropertyOp10
 70
     1
102
RTVSPropertyOp11
 70
     1
102
RTVSPropertyOp12
 70
     1
102
RTVSPropertyOp13
 70
     1
102
RTVSPropertyOp14
 70
     1
102
RTVSPropertyOp15
 70
     1
102
RTVSPropertyOp16
 70
     1
102
RTVSPropertyOp17
 70
     1
102
RTVSPropertyOp18
 70
     1
102
RTVSPropertyOp19
 70
     1
102
RTVSPropertyOp20
 70
     1
102
RTVSPropertyOp21
 70
     1
102
RTVSPropertyOp22
 70
     1
102
RTVSPropertyOp23
 70
     1
102
RTVSPropertyOp24
 70
     1
102
RTVSPropertyOp25
 70
     1
102
RTVSPropertyOp26
 70
     1
102
RTVSPropertyOp27
 70
     1
102
RTVSPropertyOp28
 70
     1
102
RTVSPropertyOp29
 70
     1
102
RTVSPropertyOp30
 70
     1
102
RTVSPropertyOp31
 70
     1
102
RTVSPropertyOp32
 70
     1
  0
XRECORD
  5
1A1
102
{ACAD_REACTORS
330
1A0
102
}
330
1A0
100
AcDbXrecord
280
     1
102
RTVSPropertyOp0
 70
     1
102
RTVSPropertyOp1
 70
     1
102
RTVSPropertyOp2
 70
     1
102
RTVSPropertyOp3
 70
     1
102
RTVSPropertyOp4
 70
     1
102
RTVSPropertyOp5
 70
     1
102
RTVSPropertyOp6
 70
     1
102
RTVSPropertyOp7
 70
     1
102
RTVSPropertyOp8
 70
     1
102
RTVSPropertyOp9
 70
     1
102
RTVSPropertyOp10
 70
     1
102
RTVSPropertyOp11
 70
     1
102
RTVSPropertyOp12
 70
     1
102
RTVSPropertyOp13
 70
     1
102
RTVSPropertyOp14
 70
     1
102
RTVSPropertyOp15
 70
     1
102
RTVSPropertyOp16
 70
     1
102
RTVSPropertyOp17
 70
     1
102
RTVSPropertyOp18
 70
     1
102
RTVSPropertyOp19
 70
     1
102
RTVSPropertyOp20
 70
     1
102
RTVSPropertyOp21
 70
     1
102
RTVSPropertyOp22
 70
     1
102
RTVSPropertyOp23
 70
     1
102
RTVSPropertyOp24
 70
     1
102
RTVSPropertyOp25
 70
     1
102
RTVSPropertyOp26
 70
     1
102
RTVSPropertyOp27
 70
     1
102
RTVSPropertyOp28
 70
     1
102
RTVSPropertyOp29
 70
     1
102
RTVSPropertyOp30
 70
     1
102
RTVSPropertyOp31
 70
     1
102
RTVSPropertyOp32
 70
     1
  0
XRECORD
  5
1A3
102
{ACAD_REACTORS
330
1A2
102
}
330
1A2
100
AcDbXrecord
280
     1
102
RTVSPropertyOp0
 70
     1
102
RTVSPropertyOp1
 70
     1
102
RTVSPropertyOp2
 70
     1
102
RTVSPropertyOp3
 70
     1
102
RTVSPropertyOp4
 70
     1
102
RTVSPropertyOp5
 70
     1
102
RTVSPropertyOp6
 70
     1
102
RTVSPropertyOp7
 70
     1
102
RTVSPropertyOp8
 70
     1
102
RTVSPropertyOp9
 70
     1
102
RTVSPropertyOp10
 70
     1
102
RTVSPropertyOp11
 70
     1
102
RTVSPropertyOp12
 70
     1
102
RTVSPropertyOp13
 70
     1
102
RTVSPropertyOp14
 70
     1
102
RTVSPropertyOp15
 70
     1
102
RTVSPropertyOp16
 70
     1
102
RTVSPropertyOp17
 70
     1
102
RTVSPropertyOp18
 70
     1
102
RTVSPropertyOp19
 70
     1
102
RTVSPropertyOp20
 70
     1
102
RTVSPropertyOp21
 70
     1
102
RTVSPropertyOp22
 70
     1
102
RTVSPropertyOp23
 70
     1
102
RTVSPropertyOp24
 70
     1
102
RTVSPropertyOp25
 70
     1
102
RTVSPropertyOp26
 70
     1
102
RTVSPropertyOp27
 70
     1
102
RTVSPropertyOp28
 70
     1
102
RTVSPropertyOp29
 70
     1
102
RTVSPropertyOp30
 70
     1
102
RTVSPropertyOp31
 70
     1
102
RTVSPropertyOp32
 70
     1
  0
XRECORD
  5
1B7
102
{ACAD_REACTORS
330
1B6
102
}
330
1B6
100
AcDbXrecord
280
     1
102
RTVSPropertyOp0
 70
     1
102
RTVSPropertyOp1
 70
     1
102
RTVSPropertyOp2
 70
     1
102
RTVSPropertyOp3
 70
     1
102
RTVSPropertyOp4
 70
     1
102
RTVSPropertyOp5
 70
     1
102
RTVSPropertyOp6
 70
     1
102
RTVSPropertyOp7
 70
     1
102
RTVSPropertyOp8
 70
     1
102
RTVSPropertyOp9
 70
     1
102
RTVSPropertyOp10
 70
     1
102
RTVSPropertyOp11
 70
     1
102
RTVSPropertyOp12
 70
     1
102
RTVSPropertyOp13
 70
     1
102
RTVSPropertyOp14
 70
     1
102
RTVSPropertyOp15
 70
     1
102
RTVSPropertyOp16
 70
     1
102
RTVSPropertyOp17
 70
     1
102
RTVSPropertyOp18
 70
     1
102
RTVSPropertyOp19
 70
     1
102
RTVSPropertyOp20
 70
     1
102
RTVSPropertyOp21
 70
     1
102
RTVSPropertyOp22
 70
     1
102
RTVSPropertyOp23
 70
     1
102
RTVSPropertyOp24
 70
     1
102
RTVSPropertyOp25
 70
     1
102
RTVSPropertyOp26
 70
     1
102
RTVSPropertyOp27
 70
     1
102
RTVSPropertyOp28
 70
     1
102
RTVSPropertyOp29
 70
     1
102
RTVSPropertyOp30
 70
     1
102
RTVSPropertyOp31
 70
     1
102
RTVSPropertyOp32
 70
     1
  0
XRECORD
  5
1AD
102
{ACAD_REACTORS
330
1AC
102
}
330
1AC
100
AcDbXrecord
280
     1
102
RTVSPropertyOp0
 70
     1
102
RTVSPropertyOp1
 70
     1
102
RTVSPropertyOp2
 70
     1
102
RTVSPropertyOp3
 70
     1
102
RTVSPropertyOp4
 70
     1
102
RTVSPropertyOp5
 70
     1
102
RTVSPropertyOp6
 70
     1
102
RTVSPropertyOp7
 70
     1
102
RTVSPropertyOp8
 70
     1
102
RTVSPropertyOp9
 70
     1
102
RTVSPropertyOp10
 70
     1
102
RTVSPropertyOp11
 70
     1
102
RTVSPropertyOp12
 70
     1
102
RTVSPropertyOp13
 70
     1
102
RTVSPropertyOp14
 70
     1
102
RTVSPropertyOp15
 70
     1
102
RTVSPropertyOp16
 70
     1
102
RTVSPropertyOp17
 70
     1
102
RTVSPropertyOp18
 70
     1
102
RTVSPropertyOp19
 70
     1
102
RTVSPropertyOp20
 70
     1
102
RTVSPropertyOp21
 70
     1
102
RTVSPropertyOp22
 70
     1
102
RTVSPropertyOp23
 70
     1
102
RTVSPropertyOp24
 70
     1
102
RTVSPropertyOp25
 70
     1
102
RTVSPropertyOp26
 70
     1
102
RTVSPropertyOp27
 70
     1
102
RTVSPropertyOp28
 70
     1
102
RTVSPropertyOp29
 70
     1
102
RTVSPropertyOp30
 70
     1
102
RTVSPropertyOp31
 70
     1
102
RTVSPropertyOp32
 70
     1
  0
XRECORD
  5
1B5
102
{ACAD_REACTORS
330
1B4
102
}
330
1B4
100
AcDbXrecord
280
     1
102
RTVSPropertyOp0
 70
     1
102
RTVSPropertyOp1
 70
     1
102
RTVSPropertyOp2
 70
     1
102
RTVSPropertyOp3
 70
     1
102
RTVSPropertyOp4
 70
     1
102
RTVSPropertyOp5
 70
     1
102
RTVSPropertyOp6
 70
     1
102
RTVSPropertyOp7
 70
     1
102
RTVSPropertyOp8
 70
     1
102
RTVSPropertyOp9
 70
     1
102
RTVSPropertyOp10
 70
     1
102
RTVSPropertyOp11
 70
     1
102
RTVSPropertyOp12
 70
     1
102
RTVSPropertyOp13
 70
     1
102
RTVSPropertyOp14
 70
     1
102
RTVSPropertyOp15
 70
     1
102
RTVSPropertyOp16
 70
     1
102
RTVSPropertyOp17
 70
     1
102
RTVSPropertyOp18
 70
     1
102
RTVSPropertyOp19
 70
     1
102
RTVSPropertyOp20
 70
     1
102
RTVSPropertyOp21
 70
     1
102
RTVSPropertyOp22
 70
     1
102
RTVSPropertyOp23
 70
     1
102
RTVSPropertyOp24
 70
     1
102
RTVSPropertyOp25
 70
     1
102
RTVSPropertyOp26
 70
     1
102
RTVSPropertyOp27
 70
     1
102
RTVSPropertyOp28
 70
     1
102
RTVSPropertyOp29
 70
     1
102
RTVSPropertyOp30
 70
     1
102
RTVSPropertyOp31
 70
     1
102
RTVSPropertyOp32
 70
     1
  0
ENDSEC
  0
EOF
